<?xml version="1.0" encoding="UTF-8"?>
<svg version="1.1" xmlns="http://www.w3.org/2000/svg" width="1024" height="1024">
<path d="M0 0 C9.5132096 6.47804273 15.66398287 21.05111612 21.375 30.8125 C29.64606015 30.13331622 37.82592129 29.10697233 46.03710938 27.91796875 C87.94156556 22.00415384 130.64500112 25.14628609 172.375 30.8125 C172.99246094 29.72453125 173.60992188 28.6365625 174.24609375 27.515625 C188.37894293 2.88079582 188.37894293 2.88079582 196.375 -1.1875 C205.12235688 -2.50765624 213.79639003 -0.33508172 222.25 1.75 C222.8926178 1.90555359 223.5352356 2.06110718 224.19732666 2.22137451 C260.10061787 10.9195096 301.2889922 22.36891862 331.375 44.8125 C332.01179687 45.26625 332.64859375 45.72 333.3046875 46.1875 C342.24393633 53.10820877 348.60041238 63.83265878 354.50732422 73.31835938 C356.00015434 75.71407194 357.37063573 77.80813573 359.375 79.8125 C360.02285303 80.99205015 360.62924465 82.19474901 361.20703125 83.41015625 C363.33856295 87.78250373 365.67794622 92.01173282 368.0625 96.25 C368.95789467 97.86019726 369.85240837 99.47088468 370.74609375 101.08203125 C371.98731541 103.31928942 373.22969141 105.55545477 374.48876953 107.78271484 C405.06330026 161.95513349 421.43417565 224.5496246 430.08074951 285.74432373 C430.35240977 287.65372174 430.63494241 289.56156443 430.91845703 291.46923828 C433.52124 309.51812953 433.6799238 327.54505223 433.75 345.75 C433.76205475 347.50120148 433.76205475 347.50120148 433.77435303 349.28778076 C433.83755301 361.39089673 433.58511226 373.35579004 432.1015625 385.37890625 C431.99371429 386.28785141 431.88586609 387.19679657 431.77474976 388.13328552 C428.87143334 408.9356263 414.38713647 420.07865704 398.57519531 432.03515625 C388.51757151 439.52181282 378.10748187 446.33795336 367.375 452.8125 C366.60720215 453.2775293 365.8394043 453.74255859 365.04833984 454.22167969 C290.35754433 499.19035329 290.35754433 499.19035329 256.375 494.8125 C236.6217164 487.00378008 225.44529855 455.55364301 217.30786133 437.83349609 C216.68460996 436.48325405 216.0400708 435.1426416 215.375 433.8125 C208.26177342 434.53514113 201.40874334 436.06517591 194.4375 437.625 C175.2809654 441.81384193 155.92997669 445.16640534 136.375 446.8125 C134.86208374 446.94386353 134.86208374 446.94386353 133.31860352 447.07788086 C121.73702659 447.97294792 110.17300649 448.01345046 98.5625 448 C97.5177652 447.99906342 96.4730304 447.99812683 95.39663696 447.99716187 C58.29381527 447.92511479 22.49680731 443.10018739 -13.625 434.8125 C-16.62403593 434.14140556 -19.6244581 433.47683824 -22.625 432.8125 C-23.17414063 434.17955078 -23.17414063 434.17955078 -23.734375 435.57421875 C-30.05001946 450.85374486 -38.25140261 465.16305923 -47.5625 478.8125 C-47.99852539 479.45251953 -48.43455078 480.09253906 -48.88378906 480.75195312 C-52.95648862 486.56472062 -57.69066275 492.47343587 -64.625 494.8125 C-72.69004244 495.62260471 -79.89354393 494.39882982 -87.5625 492 C-88.57030518 491.69521729 -89.57811035 491.39043457 -90.61645508 491.07641602 C-110.5759131 484.87237011 -131.28254339 477.71549397 -149.3125 467.0625 C-150.48357316 466.37623404 -151.65549345 465.69141221 -152.828125 465.0078125 C-153.43720703 464.65235352 -154.04628906 464.29689453 -154.67382812 463.93066406 C-156.76206345 462.73395263 -158.86921239 461.57810401 -160.984375 460.4296875 C-179.18437439 450.5427612 -196.58045448 438.93985542 -212.625 425.8125 C-213.285 426.1425 -213.945 426.4725 -214.625 426.8125 C-214.955 426.131875 -215.285 425.45125 -215.625 424.75 C-217.45807753 422.05766738 -219.04841769 420.45653215 -221.5 418.375 C-234.84263478 407.03620414 -236.81445584 393.52639988 -238.22802734 376.86914062 C-239.03525879 365.78385928 -238.97252403 354.67101669 -238.9375 343.5625 C-238.93534485 342.32994476 -238.9331897 341.09738953 -238.93096924 339.82748413 C-238.87635247 320.31651073 -238.30648284 301.15884899 -235.625 281.8125 C-235.52554077 281.09330383 -235.42608154 280.37410767 -235.3236084 279.63311768 C-227.8231345 225.89995387 -213.58367464 174.01184066 -190.625 124.8125 C-190.1609375 123.80219727 -189.696875 122.79189453 -189.21875 121.75097656 C-180.22790905 102.17929508 -170.00295047 83.45653168 -157.625 65.8125 C-156.91472656 64.79542969 -156.20445312 63.77835937 -155.47265625 62.73046875 C-127.82426493 23.93781221 -72.40455255 13.43113121 -28.64071655 2.32711792 C-26.76615904 1.84853829 -24.89430884 1.35938852 -23.02270508 0.86938477 C-21.97493896 0.59795654 -20.92717285 0.32652832 -19.84765625 0.046875 C-18.96601807 -0.18418945 -18.08437988 -0.41525391 -17.17602539 -0.65332031 C-11.19101146 -1.90657043 -5.81240248 -1.90406288 0 0 Z M-105.4375 59.5625 C-106.34290527 59.9855542 -107.24831055 60.4086084 -108.18115234 60.84448242 C-146.860196 79.74621089 -167.82501777 143.11975679 -181.03309631 181.56326294 C-191.74643476 213.00268784 -199.6339801 244.86136934 -204.375 277.75 C-204.47605042 278.44415009 -204.57710083 279.13830017 -204.68121338 279.85348511 C-207.52600206 299.60941854 -208.96338141 319.19786175 -208.88574219 339.16308594 C-208.87498444 342.44224421 -208.88573522 345.7208577 -208.8984375 349 C-208.90560975 359.06890217 -208.7035553 369.05880971 -207.734375 379.0859375 C-207.65689026 379.90027252 -207.57940552 380.71460754 -207.49957275 381.55361938 C-206.26737587 392.80443245 -199.93476401 397.79301436 -191.625 404.8125 C-188.94611216 406.92641223 -186.20763476 408.94505167 -183.4375 410.9375 C-182.66921875 411.49026611 -181.9009375 412.04303223 -181.109375 412.61254883 C-149.42421824 435.10176272 -112.87035542 455.59001906 -74.625 463.8125 C-65.41296632 451.39760693 -57.70346239 438.02028811 -51.625 423.8125 C-53.61854907 421.81895093 -54.82200011 421.17334567 -57.37109375 420.11328125 C-58.12116699 419.79480225 -58.87124023 419.47632324 -59.64404297 419.14819336 C-60.8411792 418.64171265 -60.8411792 418.64171265 -62.0625 418.125 C-81.05651887 409.8394112 -81.05651887 409.8394112 -85.3125 403.375 C-87.09958094 398.52435172 -87.58497764 394.81843 -86 389.85546875 C-84.33809597 386.33134189 -82.4984417 384.37054832 -78.9375 382.75 C-71.06840278 380.5343734 -63.7215194 384.47804254 -56.75 387.875 C5.70755074 416.93465831 84.62879263 423.73492431 152.375 413.8125 C153.07629028 413.7106842 153.77758057 413.60886841 154.50012207 413.50396729 C188.58394717 408.52816515 221.25384467 400.86660499 252.84375 386.79296875 C265.56611925 381.19690281 265.56611925 381.19690281 270.1875 382.5625 C270.91582031 382.76359375 271.64414062 382.9646875 272.39453125 383.171875 C277.35465642 384.77633363 277.35465642 384.77633363 278.5 386.8125 C280.01287954 391.99951556 280.97835209 396.65767112 279.5 401.9375 C271.45561281 412.82108267 256.66955925 418.08959004 244.375 422.8125 C246.01966011 428.52651912 248.67717619 433.57772793 251.4375 438.8125 C251.9219458 439.73571045 252.4063916 440.6589209 252.90551758 441.61010742 C256.99084901 449.29373731 261.48065319 456.62203987 266.375 463.8125 C310.27301641 455.87793643 353.97867669 429.65504816 388.375 401.8125 C388.90061523 401.39081543 389.42623047 400.96913086 389.96777344 400.53466797 C391.51848712 399.27548846 393.04096816 397.98179008 394.5625 396.6875 C395.44292969 395.94242188 396.32335937 395.19734375 397.23046875 394.4296875 C402.48389006 388.01840831 401.97547892 378.61521528 402.5 370.6875 C402.5834668 369.44266846 402.66693359 368.19783691 402.75292969 366.9152832 C408.88477832 269.27497919 378.4986687 167.63716108 317.5 72.80078125 C313.0096436 68.59932646 307.76357703 65.69950139 302.375 62.8125 C301.24964844 62.18988281 300.12429688 61.56726563 298.96484375 60.92578125 C274.52130453 47.82457924 247.30432016 39.41259825 220.5 32.6875 C219.19784546 32.35032959 219.19784546 32.35032959 217.86938477 32.00634766 C217.06944092 31.8160498 216.26949707 31.62575195 215.4453125 31.4296875 C214.40528076 31.17614502 214.40528076 31.17614502 213.34423828 30.91748047 C210.70080323 30.77655844 209.5505944 31.30362001 207.375 32.8125 C205.61497206 35.10030473 205.61497206 35.10030473 204.0625 37.86328125 C203.46179688 38.87197266 202.86109375 39.88066406 202.2421875 40.91992188 C201.62601563 41.97759766 201.00984375 43.03527344 200.375 44.125 C199.14903629 46.20631705 197.91996648 48.28580825 196.6875 50.36328125 C196.14738281 51.28794189 195.60726563 52.21260254 195.05078125 53.1652832 C192.12884434 57.78104106 189.44698011 61.55828662 184.375 63.8125 C176.84960117 65.19028446 170.78944668 64.19448419 163.375 62.5625 C144.57278877 58.69366601 125.57230543 56.32867223 106.375 55.8125 C105.64168457 55.79058594 104.90836914 55.76867187 104.15283203 55.74609375 C77.33648742 55.05509926 50.56114914 57.54713926 24.4375 63.625 C17.69300915 65.11649129 12.53615514 65.32985447 6.25 62.3125 C-0.52408585 56.42199057 -4.87337224 48.97682554 -9.2421875 41.21875 C-10.41537037 38.93521009 -10.41537037 38.93521009 -11.625 37.8125 C-13.0033603 35.50416167 -14.30475919 33.15486272 -15.625 30.8125 C-43.86776292 30.8125 -80.12668254 47.62465524 -105.4375 59.5625 Z " fill="#8B8A8A" transform="translate(414.625,263.1875)"/>
<path d="M0 0 C1.03125 0.721875 2.0625 1.44375 3.125 2.1875 C14.4933212 12.24156441 23.11883441 28.19949627 24.1640625 43.38330078 C25.10903911 64.51534014 20.38733187 82.57708685 6.20703125 98.73828125 C-2.797492 107.96592543 -15.3882961 114.80526545 -28.4375 115.265625 C-29.95833327 115.27085123 -31.47923746 115.26557095 -33 115.25 C-34.13308594 115.26160156 -34.13308594 115.26160156 -35.2890625 115.2734375 C-50.20954168 115.22216438 -63.07461606 108.10695709 -73.44140625 97.7578125 C-76.86128455 94.0716536 -79.61824164 90.42434228 -82 86 C-82.44859375 85.17113281 -82.8971875 84.34226562 -83.359375 83.48828125 C-91.32515417 67.43957909 -92.55556355 48.64800537 -87.3125 31.58984375 C-80.89864268 14.04718041 -69.93180465 0.20078888 -52.82421875 -7.89453125 C-33.82419227 -15.33160939 -16.24498544 -11.57322492 0 0 Z " fill="#8B8B8B" transform="translate(652,475)"/>
<path d="M0 0 C0.79921875 0.34417969 1.5984375 0.68835938 2.421875 1.04296875 C6.81076209 3.06416675 9.75167189 5.34563087 13 9 C13.59425781 9.60328125 14.18851562 10.2065625 14.80078125 10.828125 C28.05562724 24.72641012 34.39598956 42.08999058 34.21484375 61.2109375 C33.32622622 76.88291944 27.66276055 89.83990571 18 102 C17.35675781 102.8559375 16.71351563 103.711875 16.05078125 104.59375 C10.89551276 110.64259836 3.29068275 114.95398941 -4 118 C-4.67675781 118.2990625 -5.35351562 118.598125 -6.05078125 118.90625 C-17.0208276 122.99870252 -31.42819733 122.6367466 -42.234375 118.3203125 C-59.44026619 110.1062006 -70.30403071 98.58120741 -76.9375 80.5625 C-82.74351458 63.57744718 -81.59423557 43.8380953 -73.75 27.75 C-65.74269803 12.63998667 -53.9717888 1.11028754 -37.36328125 -4.15234375 C-24.01333629 -7.51696403 -12.49388484 -5.54375257 0 0 Z " fill="#8B8B8B" transform="translate(427,469)"/>
<path d="M0 0 C23.43 0 46.86 0 71 0 C71 0.33 71 0.66 71 1 C67.04 1 63.08 1 59 1 C59 1.66 59 2.32 59 3 C52.3247966 3.02526945 45.64960543 3.04283268 38.97436523 3.05493164 C36.70157409 3.05997325 34.4287862 3.06680637 32.15600586 3.07543945 C28.89696449 3.08751261 25.63796583 3.09322987 22.37890625 3.09765625 C21.35599991 3.10281754 20.33309357 3.10797882 19.27919006 3.11329651 C18.33829025 3.11337204 17.39739044 3.11344757 16.42797852 3.11352539 C15.59524918 3.115746 14.76251984 3.11796661 13.90455627 3.12025452 C12 3 12 3 11 2 C9.15108054 1.76636119 7.29511969 1.58696365 5.4375 1.4375 C4.42558594 1.35371094 3.41367187 1.26992188 2.37109375 1.18359375 C1.19740234 1.09271484 1.19740234 1.09271484 0 1 C0 0.67 0 0.34 0 0 Z " fill="#818180" transform="translate(477,708)"/>
<path d="M0 0 C0.33 0 0.66 0 1 0 C1.66 5.28 2.32 10.56 3 16 C3.33 16 3.66 16 4 16 C4.95114271 30.75673107 4.95114271 45.24326893 4 60 C3.67 60 3.34 60 3 60 C2.56845763 53.0625979 2.14173764 46.12491085 1.71826172 39.18701172 C1.57384683 36.83017366 1.42835565 34.47340129 1.28173828 32.11669922 C1.0703623 28.71599033 0.86294504 25.31505873 0.65625 21.9140625 C0.59062866 20.87198639 0.52500732 19.82991028 0.45739746 18.7562561 C0.08143993 12.49502501 -0.08181885 6.27223775 0 0 Z " fill="#9B9B9A" transform="translate(815,556)"/>
<path d="M0 0 C4.94386952 2.37130733 6.97323393 5.51714473 9.6875 10.0625 C12.49158599 14.79453158 12.49158599 14.79453158 16 19 C15.34 19.99 14.68 20.98 14 22 C13.6596875 21.47792969 13.319375 20.95585937 12.96875 20.41796875 C9.33519164 14.89998518 5.50684474 9.56810227 1.5390625 4.28515625 C0 2 0 2 0 0 Z " fill="#818180" transform="translate(758,324)"/>
<path d="M0 0 C1.134375 0.495 2.26875 0.99 3.4375 1.5 C10.56027394 4.16318885 17.63050579 3.07192643 25 2 C23 5 23 5 20.74609375 5.66796875 C7.20381238 7.30537119 7.20381238 7.30537119 2.25 4.125 C1.5075 3.42375 0.765 2.7225 0 2 C0 1.34 0 0.68 0 0 Z " fill="#838383" transform="translate(665,752)"/>
<path d="M0 0 C0.33 0 0.66 0 1 0 C2.75046002 6.01720631 3.21837474 11.64548227 3.25 17.875 C3.26353516 18.99926392 3.26353516 18.99926392 3.27734375 20.14624023 C3.25664438 23.95880502 3.16301723 25.75547415 1 29 C0.30386731 19.31629705 -0.14973506 9.71614177 0 0 Z " fill="#7D7D7C" transform="translate(844,559)"/>
<path d="M0 0 C-0.99 0.33 -1.98 0.66 -3 1 C-3 1.66 -3 2.32 -3 3 C-11.07953776 4.81344335 -18.73252149 5.23658921 -27 5 C-27 4.67 -27 4.34 -27 4 C-23.43884042 3.32603699 -19.87587859 2.66212182 -16.3125 2 C-15.30509766 1.80921875 -14.29769531 1.6184375 -13.25976562 1.421875 C-12.28330078 1.24140625 -11.30683594 1.0609375 -10.30078125 0.875 C-9.40528564 0.70742188 -8.50979004 0.53984375 -7.5871582 0.3671875 C-5.01987068 0.00282018 -2.58907987 -0.06528807 0 0 Z " fill="#7E7D7C" transform="translate(602,700)"/>
<path d="M0 0 C0.99 0.33 1.98 0.66 3 1 C2.49210938 1.54527344 1.98421875 2.09054687 1.4609375 2.65234375 C-3.2461771 7.80901424 -7.30392225 13.07787542 -11 19 C-11.73046875 17.34375 -11.73046875 17.34375 -12 15 C-10.48828125 12.34375 -10.48828125 12.34375 -8.3125 9.5 C-7.60738281 8.5615625 -6.90226563 7.623125 -6.17578125 6.65625 C-4.22944725 4.28011513 -2.21698434 2.12189923 0 0 Z " fill="#858585" transform="translate(582,479)"/>
<path d="M0 0 C3.63 0 7.26 0 11 0 C11 0.33 11 0.66 11 1 C16.445 1.495 16.445 1.495 22 2 C22 2.33 22 2.66 22 3 C17.89658886 3.22556502 13.79235012 3.42750038 9.6875 3.625 C8.52025391 3.68945312 7.35300781 3.75390625 6.15039062 3.8203125 C5.03212891 3.871875 3.91386719 3.9234375 2.76171875 3.9765625 C1.2142395 4.05511475 1.2142395 4.05511475 -0.36450195 4.13525391 C-3 4 -3 4 -6 2 C-4.02 2 -2.04 2 0 2 C0 1.34 0 0.68 0 0 Z " fill="#90908F" transform="translate(469,290)"/>
<path d="M0 0 C0.33 0 0.66 0 1 0 C1.0291544 3.39581516 1.04685068 6.79159786 1.0625 10.1875 C1.07087891 11.14720703 1.07925781 12.10691406 1.08789062 13.09570312 C1.09111328 14.02705078 1.09433594 14.95839844 1.09765625 15.91796875 C1.10289307 16.77156982 1.10812988 17.6251709 1.11352539 18.50463867 C0.99579323 21.09246747 0.57107044 23.47661953 0 26 C-0.33 26 -0.66 26 -1 26 C-3.56634962 19.58412596 -3.68072719 13.72290876 -2 7 C-1.67 7 -1.34 7 -1 7 C-0.67 4.69 -0.34 2.38 0 0 Z " fill="#A2A2A2" transform="translate(675,516)"/>
<path d="M0 0 C0.33 0 0.66 0 1 0 C1 4.95 1 9.9 1 15 C1.66 15 2.32 15 3 15 C3 10.05 3 5.1 3 0 C3.33 0 3.66 0 4 0 C4.08728882 3.24983 4.14048658 6.4993575 4.1875 9.75 C4.22520508 11.13058594 4.22520508 11.13058594 4.26367188 12.5390625 C4.27333984 13.42851563 4.28300781 14.31796875 4.29296875 15.234375 C4.3086792 16.05131836 4.32438965 16.86826172 4.34057617 17.70996094 C3.92379459 20.51240627 2.83804852 21.88847021 1 24 C-0.06309567 18.82682579 -0.11693938 13.87630664 -0.0625 8.625 C-0.05798828 7.79355469 -0.05347656 6.96210937 -0.04882812 6.10546875 C-0.03713164 4.07028103 -0.01919935 2.03513077 0 0 Z " fill="#A4A4A4" transform="translate(562,518)"/>
<path d="M0 0 C0.33 0 0.66 0 1 0 C1.338329 3.20782685 1.66976146 6.41633098 2 9.625 C2.09539062 10.52863281 2.19078125 11.43226563 2.2890625 12.36328125 C2.75579891 16.93063039 3.12222799 21.40117188 3 26 C2.34 26 1.68 26 1 26 C-1.69983817 17.26522944 -0.76250709 8.97491454 0 0 Z " fill="#939392" transform="translate(206,631)"/>
<path d="M0 0 C3.40100748 4.53467664 3.33913116 5.7912782 3.1875 11.25 C3.16042969 12.51328125 3.13335937 13.7765625 3.10546875 15.078125 C3.07066406 16.04234375 3.03585937 17.0065625 3 18 C2.34 18 1.68 18 1 18 C1 19.65 1 21.3 1 23 C0.67 23 0.34 23 0 23 C0 15.41 0 7.82 0 0 Z " fill="#848484" transform="translate(458,516)"/>
<path d="M0 0 C3 1 3 1 4.30078125 3.51171875 C5.79413242 6.29497978 5.79413242 6.29497978 8.91796875 6.70703125 C9.99691406 6.74183594 11.07585937 6.77664063 12.1875 6.8125 C13.81751953 6.88404297 13.81751953 6.88404297 15.48046875 6.95703125 C16.31191406 6.97121094 17.14335937 6.98539062 18 7 C14.08645203 9.11401475 10.47810843 10.21192694 6 10 C2.15913011 7.47311192 1.18175833 4.33311388 0 0 Z " fill="#7D7D7D" transform="translate(430,288)"/>
<path d="M0 0 C0.33 0.66 0.66 1.32 1 2 C0.01 3.485 0.01 3.485 -1 5 C-6.94 4.01 -12.88 3.02 -19 2 C-19 1.67 -19 1.34 -19 1 C-17.79601562 1.01160156 -16.59203125 1.02320313 -15.3515625 1.03515625 C-13.77604321 1.04453434 -12.20052225 1.05363452 -10.625 1.0625 C-9.43390625 1.07506836 -9.43390625 1.07506836 -8.21875 1.08789062 C-3.97607778 1.23040151 -3.97607778 1.23040151 0 0 Z " fill="#808180" transform="translate(589,293)"/>
<path d="M0 0 C2.73251686 3.27098341 4.21683758 6.59882422 5.75 10.5625 C6.42289063 12.26599609 6.42289063 12.26599609 7.109375 14.00390625 C8 17 8 17 7 20 C7 19.34 7 18.68 7 18 C6.34 18 5.68 18 5 18 C4.15621025 15.94175571 3.32536378 13.87820214 2.5 11.8125 C2.0359375 10.66394531 1.571875 9.51539063 1.09375 8.33203125 C0.09194348 5.28009923 -0.23870804 3.16884928 0 0 Z " fill="#828281" transform="translate(780,421)"/>
<path d="M0 0 C1.60294922 0.01353516 1.60294922 0.01353516 3.23828125 0.02734375 C4.04652344 0.03894531 4.85476563 0.05054688 5.6875 0.0625 C-0.52231949 3.53183577 -8.27982541 4.44264457 -15.3125 4.0625 C-13.9925 3.7325 -12.6725 3.4025 -11.3125 3.0625 C-11.3125 2.4025 -11.3125 1.7425 -11.3125 1.0625 C-7.47525828 0.15836327 -3.93747726 -0.04326898 0 0 Z " fill="#7C7C7A" transform="translate(592.3125,672.9375)"/>
<path d="M0 0 C5.77378925 0.4811491 9.95859836 2.18467181 15 5 C15 5.66 15 6.32 15 7 C16.32 7.66 17.64 8.32 19 9 C15.15706528 8.37115614 11.91660356 7.2348198 8.375 5.625 C7.43398438 5.20476563 6.49296875 4.78453125 5.5234375 4.3515625 C3.20042075 3.1073461 1.71670489 1.97017809 0 0 Z " fill="#949494" transform="translate(269,731)"/>
<path d="M0 0 C0.33 0 0.66 0 1 0 C0.4426724 9.34413088 -0.16995114 18.67519581 -1 28 C-1.33 28 -1.66 28 -2 28 C-3.05017373 18.02967595 -3.24559738 9.68178201 0 0 Z " fill="#ABABAB" transform="translate(208,552)"/>
<path d="M0 0 C-0.73605469 0.53109375 -1.47210938 1.0621875 -2.23046875 1.609375 C-3.20628906 2.31578125 -4.18210937 3.0221875 -5.1875 3.75 C-6.63189453 4.79414063 -6.63189453 4.79414063 -8.10546875 5.859375 C-10.79129214 7.84565195 -13.40666793 9.89499188 -16 12 C-13.2081932 5.40118392 -7.7743925 -2.38327043 0 0 Z " fill="#7C7C7C" transform="translate(286,304)"/>
<path d="M0 0 C3.66398299 1.68970089 6.90832572 3.87300211 10.25 6.125 C11.86648437 7.21167969 11.86648437 7.21167969 13.515625 8.3203125 C14.33546875 8.87460937 15.1553125 9.42890625 16 10 C14.3203125 10.69921875 14.3203125 10.69921875 12 11 C9.4921875 9.70703125 9.4921875 9.70703125 6.875 7.8125 C6.00617188 7.20019531 5.13734375 6.58789062 4.2421875 5.95703125 C2.05214272 4.04551133 1.05488804 2.67277813 0 0 Z " fill="#7E7E7D" transform="translate(219,699)"/>
<path d="M0 0 C1.58272601 3.16545202 0.33086619 5.74418878 -0.4375 9.125 C-0.72496094 10.40632813 -1.01242187 11.68765625 -1.30859375 13.0078125 C-1.53675781 13.99523437 -1.76492188 14.98265625 -2 16 C-4 14 -4 14 -4.25 10.75 C-4.00673748 7.10106222 -3.43628976 4.35134277 -2 1 C-1.34 0.67 -0.68 0.34 0 0 Z " fill="#838483" transform="translate(569,499)"/>
<path d="M0 0 C-5.91401451 3.18446935 -12.3048892 4.34333902 -19 4 C-18.01 3.67 -17.02 3.34 -16 3 C-16 2.34 -16 1.68 -16 1 C-5.62642369 -1.48063781 -5.62642369 -1.48063781 0 0 Z " fill="#939292" transform="translate(618,698)"/>
<path d="M0 0 C0.33 0 0.66 0 1 0 C0.85761163 2.04190981 0.71092972 4.08352045 0.5625 6.125 C0.48128906 7.26195312 0.40007812 8.39890625 0.31640625 9.5703125 C0.02269035 12.7540478 -0.43124313 15.85510907 -1 19 C-1.33 19 -1.66 19 -2 19 C-2 17.02 -2 15.04 -2 13 C-2.66 13 -3.32 13 -4 13 C-3.67 10.03 -3.34 7.06 -3 4 C-2.34 4.66 -1.68 5.32 -1 6 C-0.67 4.02 -0.34 2.04 0 0 Z " fill="#A0A09F" transform="translate(212,523)"/>
<path d="M0 0 C0 0.33 0 0.66 0 1 C-8.01316758 3.01754006 -14.81515897 4.55229744 -23 3 C-23 2.67 -23 2.34 -23 2 C-19.04 2 -15.08 2 -11 2 C-11 1.34 -11 0.68 -11 0 C-7.18243176 -1.37432457 -3.92744671 -0.67975039 0 0 Z " fill="#9D9C9C" transform="translate(447,325)"/>
<path d="M0 0 C4.12172083 3.76843047 7.63068221 7.88904305 10 13 C9.67 13.66 9.34 14.32 9 15 C5.17649939 11.60133279 2.28703425 7.56469541 0 3 C0 2.01 0 1.02 0 0 Z " fill="#7F7F7D" transform="translate(737,341)"/>
<path d="M0 0 C3.66541254 5.4981188 4.34357529 12.47206957 4 19 C3.67 17.68 3.34 16.36 3 15 C2.34 15 1.68 15 1 15 C-0.32286246 10.03926578 -0.08893197 5.08888488 0 0 Z " fill="#7E7E7C" transform="translate(809,514)"/>
<path d="M0 0 C-1.60064843 0.53154742 -3.20568874 1.04988353 -4.8125 1.5625 C-5.70582031 1.85253906 -6.59914063 2.14257812 -7.51953125 2.44140625 C-10 3 -10 3 -13 2 C-13.99 1.34 -14.98 0.68 -16 0 C-14.08655626 -0.39111271 -12.16903447 -0.76231167 -10.25 -1.125 C-9.18265625 -1.33382812 -8.1153125 -1.54265625 -7.015625 -1.7578125 C-3.86311649 -2.01099324 -2.60040934 -1.70415175 0 0 Z " fill="#929191" transform="translate(702,753)"/>
<path d="M0 0 C-4.29 2.64 -8.58 5.28 -13 8 C-13.33 7.01 -13.66 6.02 -14 5 C-12.42652824 3.964031 -10.84078454 2.94668268 -9.25 1.9375 C-8.36828125 1.36902344 -7.4865625 0.80054688 -6.578125 0.21484375 C-4 -1 -4 -1 0 0 Z " fill="#828281" transform="translate(773,689)"/>
<path d="M0 0 C0.33 0 0.66 0 1 0 C1.33 2.31 1.66 4.62 2 7 C2.33 7 2.66 7 3 7 C3 10.96 3 14.92 3 19 C2.34 19 1.68 19 1 19 C-0.26582219 15.13276369 -0.1118765 11.26848738 -0.0625 7.25 C-0.05798828 6.55261719 -0.05347656 5.85523438 -0.04882812 5.13671875 C-0.0371002 3.42444197 -0.01916653 1.71220967 0 0 Z " fill="#939293" transform="translate(178,554)"/>
<path d="M0 0 C3.57885399 1.19295133 4.18134909 2.24467062 6.25 5.3125 C6.79140625 6.09238281 7.3328125 6.87226562 7.890625 7.67578125 C9 10 9 10 8.671875 12.29296875 C8.45015625 12.85628906 8.2284375 13.41960938 8 14 C6.66101601 12.04532248 5.32870953 10.0866421 4 8.125 C3.2575 7.03445313 2.515 5.94390625 1.75 4.8203125 C0 2 0 2 0 0 Z " fill="#828281" transform="translate(672,715)"/>
<path d="M0 0 C-0.66 0 -1.32 0 -2 0 C-2 0.66 -2 1.32 -2 2 C-5.05263664 2.98120464 -6.94736336 2.98120464 -10 2 C-10 2.99 -10 3.98 -10 5 C-13 4 -13 4 -16 2 C-14.08654673 1.46748234 -12.1690705 0.94940517 -10.25 0.4375 C-9.18265625 0.14746094 -8.1153125 -0.14257812 -7.015625 -0.44140625 C-4.15664073 -0.97098494 -2.68402617 -0.98370862 0 0 Z " fill="#9C9C9B" transform="translate(619,668)"/>
<path d="M0 0 C0.33 0 0.66 0 1 0 C1 3.3 1 6.6 1 10 C0.34 10 -0.32 10 -1 10 C-1.33 13.63 -1.66 17.26 -2 21 C-2.33 21 -2.66 21 -3 21 C-2.58169634 13.77875787 -2.04538889 6.95432222 0 0 Z " fill="#6E6E6D" transform="translate(213,513)"/>
<path d="M0 0 C2.55382735 2.22071943 3.38617539 3.69479056 4 7 C4.06548492 8.58211573 4.08578381 10.16670081 4.0625 11.75 C4.05347656 12.54921875 4.04445313 13.3484375 4.03515625 14.171875 C4.01775391 15.07679688 4.01775391 15.07679688 4 16 C0.64002241 10.96003362 -0.29282455 6.00290323 0 0 Z " fill="#7A7A79" transform="translate(830,484)"/>
<path d="M0 0 C0.71484375 1.671875 0.71484375 1.671875 1 4 C-0.43359375 6.578125 -0.43359375 6.578125 -2.4375 9.25 C-3.09621094 10.14203125 -3.75492187 11.0340625 -4.43359375 11.953125 C-4.95050781 12.62859375 -5.46742188 13.3040625 -6 14 C-6.71484375 12.328125 -6.71484375 12.328125 -7 10 C-5.56640625 7.421875 -5.56640625 7.421875 -3.5625 4.75 C-2.90378906 3.85796875 -2.24507813 2.9659375 -1.56640625 2.046875 C-1.04949219 1.37140625 -0.53257812 0.6959375 0 0 Z " fill="#858484" transform="translate(262,322)"/>
<path d="M0 0 C-3.00011836 3.00011836 -6.16707101 3.90431692 -10.39453125 4.125 C-12.60000767 4.125 -14.79641059 4.08814358 -17 4 C-14.04925888 2.43220483 -11.12880766 1.29925425 -7.9375 0.3125 C-7.08027344 0.04050781 -6.22304688 -0.23148437 -5.33984375 -0.51171875 C-3 -1 -3 -1 0 0 Z " fill="#979796" transform="translate(367,272)"/>
<path d="M0 0 C6.27 0.66 12.54 1.32 19 2 C19 2.33 19 2.66 19 3 C6.64435823 4.4290333 6.64435823 4.4290333 2 3 C1.34 2.01 0.68 1.02 0 0 Z " fill="#9B9A9A" transform="translate(437,674)"/>
<path d="M0 0 C-2.23495428 2.23495428 -4.02414536 3.0024791 -6.9375 4.1875 C-7.81277344 4.55230469 -8.68804688 4.91710937 -9.58984375 5.29296875 C-12 6 -12 6 -15 5 C-14.34 5 -13.68 5 -13 5 C-13 4.34 -13 3.68 -13 3 C-8.37802694 0.78145293 -5.23175837 -0.38281159 0 0 Z " fill="#828280" transform="translate(659,655)"/>
<path d="M0 0 C-1.93108963 1.03290841 -3.870118 2.05098672 -5.8125 3.0625 C-6.89144531 3.63097656 -7.97039063 4.19945312 -9.08203125 4.78515625 C-12 6 -12 6 -15 5 C-14.34 5 -13.68 5 -13 5 C-13 4.34 -13 3.68 -13 3 C-11.5903653 2.29819469 -10.17192359 1.61406042 -8.75 0.9375 C-7.96109375 0.55464844 -7.1721875 0.17179688 -6.359375 -0.22265625 C-3.74006478 -1.08564091 -2.55144824 -0.93045933 0 0 Z " fill="#949493" transform="translate(648,582)"/>
<path d="M0 0 C2.45605371 2.55274874 2.98802939 3.85890643 3.29296875 7.453125 C3.25816406 8.70609375 3.22335937 9.9590625 3.1875 11.25 C3.16042969 12.51328125 3.13335938 13.7765625 3.10546875 15.078125 C3.07066406 16.04234375 3.03585937 17.0065625 3 18 C2.67 18 2.34 18 2 18 C0.59545452 11.88019467 -0.23268915 6.28260706 0 0 Z " fill="#727171" transform="translate(838,521)"/>
<path d="M0 0 C0.99 0 1.98 0 3 0 C3.86883706 1.57533086 4.71959068 3.16064509 5.5625 4.75 C6.03816406 5.63171875 6.51382813 6.5134375 7.00390625 7.421875 C8 10 8 10 7 14 C4.69 9.38 2.38 4.76 0 0 Z " fill="#7F7E7D" transform="translate(786,371)"/>
<path d="M0 0 C4.83628305 0.99043705 9.47618873 1.95698846 14 4 C13.01 5.485 13.01 5.485 12 7 C11.34 7 10.68 7 10 7 C10 6.34 10 5.68 10 5 C9.05125 4.855625 8.1025 4.71125 7.125 4.5625 C4 4 4 4 2 3 C2 2.34 2 1.68 2 1 C1.34 0.67 0.68 0.34 0 0 Z " fill="#939393" transform="translate(674,276)"/>
<path d="M0 0 C0.33 0 0.66 0 1 0 C0.85805236 2.06277107 0.71127784 4.12521031 0.5625 6.1875 C0.48128906 7.33605469 0.40007812 8.48460937 0.31640625 9.66796875 C0.04596188 12.51598171 -0.37521747 15.21210482 -1 18 C-1.33 18 -1.66 18 -2 18 C-2.054138 15.75026553 -2.09285491 13.50015617 -2.125 11.25 C-2.14820313 9.99703125 -2.17140625 8.7440625 -2.1953125 7.453125 C-2.01537302 4.27179508 -1.68998582 2.63478104 0 0 Z " fill="#767675" transform="translate(185,515)"/>
<path d="M0 0 C4.96916636 0.51405169 9.29026351 1.23384882 14 3 C14 3.33 14 3.66 14 4 C5.42857143 4.14285714 5.42857143 4.14285714 2 3 C2 2.34 2 1.68 2 1 C1.34 0.67 0.68 0.34 0 0 Z " fill="#81807F" transform="translate(399,695)"/>
<path d="M0 0 C0.33 0 0.66 0 1 0 C1 4.95 1 9.9 1 15 C0.34 15 -0.32 15 -1 15 C-1.33 15.99 -1.66 16.98 -2 18 C-1.03644647 5.33029613 -1.03644647 5.33029613 0 0 Z " fill="#777776" transform="translate(844,644)"/>
<path d="M0 0 C1.91635217 -0.05423638 3.83314925 -0.09289963 5.75 -0.125 C7.35101563 -0.15980469 7.35101563 -0.15980469 8.984375 -0.1953125 C11.96097068 -0.00252781 13.57897463 0.2917064 16 2 C16.33 2.99 16.66 3.98 17 5 C16.35933594 4.79503906 15.71867187 4.59007812 15.05859375 4.37890625 C10.02712149 2.81172636 5.24011997 1.56957826 0 1 C0 0.67 0 0.34 0 0 Z " fill="#747574" transform="translate(337,646)"/>
<path d="M0 0 C0.33 0.66 0.66 1.32 1 2 C1.66 2 2.32 2 3 2 C4.91847864 4.87771795 6.50079488 7.88626628 8 11 C7.01 11.33 6.02 11.66 5 12 C4.15885829 10.56705502 3.32734313 9.12845595 2.5 7.6875 C1.80390625 6.48673828 1.80390625 6.48673828 1.09375 5.26171875 C0 3 0 3 0 0 Z " fill="#929292" transform="translate(352,552)"/>
<path d="M0 0 C3 1 3 1 4.6875 4.1875 C6.01535157 7.5347925 6.26451861 10.38491227 6 14 C3.74402173 11.74402173 3.03425808 9.95396133 1.875 7 C1.52179687 6.113125 1.16859375 5.22625 0.8046875 4.3125 C0 2 0 2 0 0 Z " fill="#7E7E7D" transform="translate(803,405)"/>
<path d="M0 0 C0.33 0.66 0.66 1.32 1 2 C0.00390625 4.6015625 0.00390625 4.6015625 -1.4375 7.625 C-1.91058594 8.62789063 -2.38367188 9.63078125 -2.87109375 10.6640625 C-3.24363281 11.43492187 -3.61617187 12.20578125 -4 13 C-4.33 13 -4.66 13 -5 13 C-4.11034483 4.10344828 -4.11034483 4.10344828 -2 1 C-1.34 0.67 -0.68 0.34 0 0 Z " fill="#7E7D7D" transform="translate(229,380)"/>
<path d="M0 0 C4.51650194 0.53135317 7.42058156 2.23408575 11 5 C11.33 5.99 11.66 6.98 12 8 C7.44328408 6.48109469 3.68276708 4.04597738 0 1 C0 0.67 0 0.34 0 0 Z " fill="#80807F" transform="translate(241,682)"/>
<path d="M0 0 C4.54805635 -0.17835515 7.8794254 0.00214565 12 2 C8.1496895 4.56687367 6.41430237 3.83288724 2 3 C2 2.34 2 1.68 2 1 C1.34 0.67 0.68 0.34 0 0 Z " fill="#848484" transform="translate(668,304)"/>
<path d="M0 0 C8.57142857 0.85714286 8.57142857 0.85714286 12 3 C12 3.66 12 4.32 12 5 C12.66 5.33 13.32 5.66 14 6 C8.93001981 5.34580901 4.58009223 3.1453591 0 1 C0 0.67 0 0.34 0 0 Z " fill="#7E7E7D" transform="translate(698,286)"/>
<path d="M0 0 C0.98484375 0.00902344 1.9696875 0.01804687 2.984375 0.02734375 C4.10585938 0.04474609 4.10585938 0.04474609 5.25 0.0625 C5.25 0.3925 5.25 0.7225 5.25 1.0625 C2.28 1.0625 -0.69 1.0625 -3.75 1.0625 C-3.75 1.7225 -3.75 2.3825 -3.75 3.0625 C-7.44541586 4.01274979 -10.05458414 4.01274979 -13.75 3.0625 C-9.05934015 0.54964651 -5.31975442 -0.06333041 0 0 Z " fill="#A1A0A0" transform="translate(405.75,261.9375)"/>
<path d="M0 0 C0 3.60573896 -0.81707462 4.41336566 -3 7.1875 C-3.556875 7.90292969 -4.11375 8.61835938 -4.6875 9.35546875 C-5.120625 9.89816406 -5.55375 10.44085938 -6 11 C-6.609375 9.1640625 -6.609375 9.1640625 -7 7 C-4.91882331 3.87823497 -3.13348366 2.08898911 0 0 Z " fill="#7D7E7E" transform="translate(363,484)"/>
<path d="M0 0 C0.66 0.99 1.32 1.98 2 3 C1.125 6.1875 1.125 6.1875 0 9 C-1.32 9 -2.64 9 -4 9 C-2.94124926 5.59687262 -1.99097846 2.98646769 0 0 Z " fill="#939393" transform="translate(237,362)"/>
<path d="M0 0 C0.33 0.99 0.66 1.98 1 3 C0.00390625 4.82421875 0.00390625 4.82421875 -1.4375 6.6875 C-1.91058594 7.31011719 -2.38367188 7.93273437 -2.87109375 8.57421875 C-3.24363281 9.04472656 -3.61617188 9.51523437 -4 10 C-4.99 9.67 -5.98 9.34 -7 9 C-4.69 6.03 -2.38 3.06 0 0 Z " fill="#818281" transform="translate(365,740)"/>
<path d="M0 0 C0.33 0 0.66 0 1 0 C0.44854729 5.23880078 -0.42922093 9.97350697 -2 15 C-2.33 15 -2.66 15 -3 15 C-3 12.03 -3 9.06 -3 6 C-2.34 6 -1.68 6 -1 6 C-0.67 4.02 -0.34 2.04 0 0 Z " fill="#747473" transform="translate(195,471)"/>
<path d="M0 0 C-0.66 0 -1.32 0 -2 0 C-2 0.66 -2 1.32 -2 2 C-5.67410785 3.17571451 -9.16929183 3.07366746 -13 3 C-10.85642985 0.85642985 -9.92072889 0.52040399 -7.0625 -0.1875 C-6.37285156 -0.36667969 -5.68320312 -0.54585938 -4.97265625 -0.73046875 C-3 -1 -3 -1 0 0 Z " fill="#81807F" transform="translate(375,299)"/>
<path d="M0 0 C-2.6895528 2.6895528 -5.45327417 3.69331154 -9 5 C-9.99 4.67 -10.98 4.34 -12 4 C-11 2 -11 2 -8.25 0.875 C-5.29813104 0.08026605 -3.02780163 -0.17810598 0 0 Z " fill="#939291" transform="translate(673,680)"/>
<path d="M0 0 C2.60608273 2.5162178 4.89381685 5.05134359 7 8 C6.67 8.66 6.34 9.32 6 10 C2.64888166 7.76592111 1.18446044 6.73784176 0.1875 2.75 C0.125625 1.8425 0.06375 0.935 0 0 Z " fill="#818180" transform="translate(571,559)"/>
<path d="M0 0 C1.37095624 3.69037278 0.60010967 5.70883835 -0.9375 9.25 C-1.31777344 10.14203125 -1.69804687 11.0340625 -2.08984375 11.953125 C-2.39019531 12.62859375 -2.69054687 13.3040625 -3 14 C-3.33 14 -3.66 14 -4 14 C-4.56561146 8.34388537 -2.71391278 4.77357872 0 0 Z " fill="#70706E" transform="translate(203,445)"/>
<path d="M0 0 C-2.85478326 1.90318884 -4.41941308 2.4619099 -7.6875 3.125 C-8.49574219 3.29257812 -9.30398438 3.46015625 -10.13671875 3.6328125 C-10.75160156 3.75398438 -11.36648438 3.87515625 -12 4 C-12 3.34 -12 2.68 -12 2 C-4.71428571 -1.57142857 -4.71428571 -1.57142857 0 0 Z " fill="#939292" transform="translate(347,308)"/>
<path d="M0 0 C0.86625 0.556875 0.86625 0.556875 1.75 1.125 C-1.18828597 3.62798434 -3.42902761 4.59430939 -7.25 5.125 C-6.59 4.465 -5.93 3.805 -5.25 3.125 C-5.58 2.465 -5.91 1.805 -6.25 1.125 C-2.80384615 -1.09038462 -2.80384615 -1.09038462 0 0 Z " fill="#959594" transform="translate(734.25,708.875)"/>
<path d="M0 0 C0.33 0 0.66 0 1 0 C1.33 4.95 1.66 9.9 2 15 C1.34 15 0.68 15 0 15 C-1.2063366 9.77254141 -0.75612577 5.23471686 0 0 Z " fill="#9C9C9C" transform="translate(207,642)"/>
<path d="M0 0 C1 4 1 4 -0.9375 7.25 C-1.618125 8.1575 -2.29875 9.065 -3 10 C-3.99 9.67 -4.98 9.34 -6 9 C-4.02 6.03 -2.04 3.06 0 0 Z " fill="#7E7E7E" transform="translate(610,312)"/>
<path d="M0 0 C0 3.38878512 -0.64361198 4.39757217 -2.4375 7.1875 C-2.88996094 7.90292969 -3.34242188 8.61835938 -3.80859375 9.35546875 C-4.20175781 9.89816406 -4.59492187 10.44085938 -5 11 C-5.33 11 -5.66 11 -6 11 C-6.3125 8.8125 -6.3125 8.8125 -6 6 C-3.5625 3.25 -3.5625 3.25 -1 1 C-0.67 0.67 -0.34 0.34 0 0 Z " fill="#7C7D7C" transform="translate(603,271)"/>
<path d="M0 0 C2.125 0.9375 2.125 0.9375 4 2 C1.3144406 4.6855594 -1.37621328 5.06049974 -5 6 C-4.67 5.01 -4.34 4.02 -4 3 C-3.34 3 -2.68 3 -2 3 C-2 2.34 -2 1.68 -2 1 C-1.34 0.67 -0.68 0.34 0 0 Z " fill="#929292" transform="translate(739,734)"/>
<path d="M0 0 C3.59391114 1.33488128 6.75490696 2.96022723 10 5 C8.3125 5.6875 8.3125 5.6875 6 6 C3.3125 4.75 3.3125 4.75 1 3 C0.67 2.01 0.34 1.02 0 0 Z " fill="#7D7D7C" transform="translate(241,714)"/>
<path d="M0 0 C2.27024968 -0.08097324 4.54132075 -0.13917704 6.8125 -0.1875 C8.07707031 -0.22230469 9.34164063 -0.25710938 10.64453125 -0.29296875 C14 0 14 0 15.94921875 1.51171875 C16.29597656 2.00285156 16.64273437 2.49398437 17 3 C15.10388566 2.85786703 13.20811606 2.71113093 11.3125 2.5625 C10.25675781 2.48128906 9.20101563 2.40007813 8.11328125 2.31640625 C5.34913703 2.03548319 2.71054259 1.59843148 0 1 C0 0.67 0 0.34 0 0 Z " fill="#AEAEAE" transform="translate(429,703)"/>
<path d="M0 0 C0.66 0.33 1.32 0.66 2 1 C0.02 3.31 -1.96 5.62 -4 8 C-5.32 7.67 -6.64 7.34 -8 7 C-5.36 4.69 -2.72 2.38 0 0 Z " fill="#949493" transform="translate(805,662)"/>
<path d="M0 0 C3.8063457 0.67170806 7.35206816 1.72746564 11 3 C11 3.33 11 3.66 11 4 C6.83861737 4.08159574 3.0527516 3.98248524 -1 3 C-0.67 2.01 -0.34 1.02 0 0 Z " fill="#959594" transform="translate(369,656)"/>
<path d="M0 0 C0.99 0.33 1.98 0.66 3 1 C4.28317892 4.84953676 4.06643637 7.94738135 4 12 C2.09681116 9.14521674 1.5380901 7.58058692 0.875 4.3125 C0.70742188 3.50425781 0.53984375 2.69601562 0.3671875 1.86328125 C0.24601562 1.24839844 0.12484375 0.63351562 0 0 Z " fill="#7A7B7A" transform="translate(454,503)"/>
<path d="M0 0 C1.04728614 3.14185841 0.99290464 3.94062123 0.1875 7 C0.01605469 7.680625 -0.15539062 8.36125 -0.33203125 9.0625 C-1 11 -1 11 -3 14 C-2.58846263 9.02906176 -2.20399168 4.55491614 0 0 Z " fill="#807F7E" transform="translate(235,435)"/>
<path d="M0 0 C1.60568666 0.28317926 3.20952047 0.57687791 4.8125 0.875 C6.15248047 1.11863281 6.15248047 1.11863281 7.51953125 1.3671875 C10 2 10 2 13 4 C7.73946963 4.31563182 4.55426184 3.66590937 0 1 C0 0.67 0 0.34 0 0 Z " fill="#7A7878" transform="translate(648,298)"/>
<path d="M0 0 C1.43836751 0.11458693 2.87570966 0.24209116 4.3125 0.375 C5.51326172 0.47941406 5.51326172 0.47941406 6.73828125 0.5859375 C9 1 9 1 12 3 C8.7 3 5.4 3 2 3 C2 2.34 2 1.68 2 1 C1.34 0.67 0.68 0.34 0 0 Z " fill="#7C7B7A" transform="translate(624,292)"/>
<path d="M0 0 C3.26460973 1.80412643 4.88929795 2.83394693 7 6 C6.625 8.1875 6.625 8.1875 6 10 C4.99421411 8.71283353 3.99553202 7.42011342 3 6.125 C2.443125 5.40570313 1.88625 4.68640625 1.3125 3.9453125 C0 2 0 2 0 0 Z " fill="#80807F" transform="translate(419,271)"/>
<path d="M0 0 C0.33 0 0.66 0 1 0 C0.54177532 3.46941546 0.10868317 6.67395049 -1 10 C-1.99 10.33 -2.98 10.66 -4 11 C-3.52269162 9.5410574 -3.04308958 8.08286504 -2.5625 6.625 C-2.29566406 5.81289063 -2.02882812 5.00078125 -1.75390625 4.1640625 C-1 2 -1 2 0 0 Z " fill="#7E7D7D" transform="translate(244,413)"/>
<path d="M0 0 C0.33 0.99 0.66 1.98 1 3 C-0.8125 6.1875 -0.8125 6.1875 -3 9 C-3.66 9 -4.32 9 -5 9 C-3.7508258 5.54074837 -2.32472205 2.85306797 0 0 Z " fill="#828180" transform="translate(284,340)"/>
<path d="M0 0 C1.5027237 0.97498145 3.00211963 1.95509389 4.5 2.9375 C5.3353125 3.48277344 6.170625 4.02804687 7.03125 4.58984375 C7.6809375 5.05519531 8.330625 5.52054687 9 6 C9 6.33 9 6.66 9 7 C5.64708882 7.37254569 4.3961577 7.31050198 1.6875 5.1875 C0 3 0 3 0 0 Z " fill="#787776" transform="translate(416,319)"/>
<path d="M0 0 C2.96865509 2.54456151 4.3619751 5.48994665 6 9 C5.01 9 4.02 9 3 9 C0.50022457 5.66696609 0 4.26696398 0 0 Z " fill="#828281" transform="translate(409,308)"/>
<path d="M0 0 C0.66 0.33 1.32 0.66 2 1 C1.25 2.9375 1.25 2.9375 0 5 C-2.125 5.75 -2.125 5.75 -4 6 C-4.33 5.01 -4.66 4.02 -5 3 C-2.625 1.4375 -2.625 1.4375 0 0 Z " fill="#919292" transform="translate(289,299)"/>
<path d="M0 0 C2.1640625 -0.29296875 2.1640625 -0.29296875 4.625 -0.1875 C5.44226563 -0.16042969 6.25953125 -0.13335937 7.1015625 -0.10546875 C8.04128906 -0.05326172 8.04128906 -0.05326172 9 0 C6.60236815 2.39763185 5.66726502 2.34280586 2.375 2.625 C1.55773437 2.69976562 0.74046875 2.77453125 -0.1015625 2.8515625 C-0.72804688 2.90054687 -1.35453125 2.94953125 -2 3 C-1.34 2.01 -0.68 1.02 0 0 Z " fill="#777675" transform="translate(368,270)"/>
<path d="M0 0 C2.61500768 2.36595933 4.38999603 4.86049226 6 8 C5.67 8.66 5.34 9.32 5 10 C1.32769295 6.92000054 0.43197635 4.7517398 0 0 Z " fill="#7A7A78" transform="translate(647,726)"/>
<path d="M0 0 C2.75 -0.25 2.75 -0.25 6 0 C8.375 2 8.375 2 10 4 C5.78087253 3.5205537 3.20336822 2.83374881 0 0 Z " fill="#7A7A79" transform="translate(316,721)"/>
<path d="M0 0 C0.53625 0.2475 1.0725 0.495 1.625 0.75 C-3.79038462 4.81153846 -3.79038462 4.81153846 -6.75 4.5 C-7.28625 4.2525 -7.8225 4.005 -8.375 3.75 C-2.95961538 -0.31153846 -2.95961538 -0.31153846 0 0 Z " fill="#838382" transform="translate(782.375,681.25)"/>
<path d="M0 0 C4.1424367 1.38081223 5.32203099 3.59825558 8 7 C7.67 7.66 7.34 8.32 7 9 C3.26115668 6.34345343 1.35021826 4.41889613 0 0 Z " fill="#949493" transform="translate(655,479)"/>
<path d="M0 0 C2.3129482 2.3129482 2.49580975 3.47904875 3.125 6.625 C3.29257812 7.44226563 3.46015625 8.25953125 3.6328125 9.1015625 C3.81457031 10.04128906 3.81457031 10.04128906 4 11 C3.67 10.34 3.34 9.68 3 9 C2.34 9 1.68 9 1 9 C0.67 6.03 0.34 3.06 0 0 Z " fill="#797978" transform="translate(789,444)"/>
<path d="M0 0 C8.57142857 0.85714286 8.57142857 0.85714286 12 3 C8.33461636 3.94252722 5.63170285 4.17784957 2 3 C1.34 2.01 0.68 1.02 0 0 Z " fill="#989796" transform="translate(641,267)"/>
<path d="M0 0 C0.66 1.32 1.32 2.64 2 4 C2.66 4 3.32 4 4 4 C4.33 6.31 4.66 8.62 5 11 C0 4.63636364 0 4.63636364 0 0 Z " fill="#9C9C9C" transform="translate(634,703)"/>
<path d="M0 0 C0 0.66 0 1.32 0 2 C1.65 2 3.3 2 5 2 C5 2.33 5 2.66 5 3 C-1.93 2.505 -1.93 2.505 -9 2 C-9 1.67 -9 1.34 -9 1 C-5.94152152 0.45627049 -3.11227195 0 0 0 Z " fill="#A1A1A1" transform="translate(457,705)"/>
<path d="M0 0 C2.125 0.9375 2.125 0.9375 4 2 C0.5980513 4.09350689 -2.05272412 4.17942163 -6 4 C-4.03617993 2.49440461 -2.21736634 1.10868317 0 0 Z " fill="#979897" transform="translate(748,700)"/>
<path d="M0 0 C0.33 0 0.66 0 1 0 C1 2.97 1 5.94 1 9 C0.34 9 -0.32 9 -1 9 C-1.33 9.66 -1.66 10.32 -2 11 C-1.125 3.375 -1.125 3.375 0 0 Z " fill="#777777" transform="translate(673,537)"/>
<path d="M0 0 C0 3.99904969 -1.72586967 5.80200422 -4 9 C-4.8125 7.3125 -4.8125 7.3125 -5 5 C-2.5625 2.25 -2.5625 2.25 0 0 Z " fill="#7C7D7C" transform="translate(575,489)"/>
<path d="M0 0 C3.86107457 2.57404971 3.94319692 4.61020259 5 9 C4.01 9.495 4.01 9.495 3 10 C2.49596232 8.70990357 1.99690074 7.41786211 1.5 6.125 C1.2215625 5.40570313 0.943125 4.68640625 0.65625 3.9453125 C0 2 0 2 0 0 Z " fill="#7B7A79" transform="translate(757,373)"/>
<path d="M0 0 C3.82097239 0.53069061 6.06171403 1.49701566 9 4 C6 5 6 5 3.375 4.25 C1 3 1 3 0 0 Z " fill="#929190" transform="translate(294,711)"/>
<path d="M0 0 C3.68754757 0.49831724 5.60490662 1.10067643 8 4 C7.01 4.495 7.01 4.495 6 5 C3.96855359 4.06553465 1.96466413 3.06775224 0 2 C0 1.34 0 0.68 0 0 Z " fill="#7E7D7C" transform="translate(275,702)"/>
<path d="M0 0 C1.32 0.33 2.64 0.66 4 1 C1.03 3.475 1.03 3.475 -2 6 C-2.66 5.67 -3.32 5.34 -4 5 C-2.68 3.35 -1.36 1.7 0 0 Z " fill="#777876" transform="translate(795,670)"/>
<path d="M0 0 C0.33 0 0.66 0 1 0 C1.33 2.97 1.66 5.94 2 9 C1.67 8.01 1.34 7.02 1 6 C0.01 6.33 -0.98 6.66 -2 7 C-1.125 2.25 -1.125 2.25 0 0 Z " fill="#9A9A99" transform="translate(836,504)"/>
<path d="M0 0 C2.56616632 3.84924948 2.55097676 6.4349304 3 11 C1.5 10 1.5 10 0 8 C-0.27345479 5.28153765 -0.13491285 2.74322801 0 0 Z " fill="#707070" transform="translate(805,497)"/>
<path d="M0 0 C2.5 2.3125 2.5 2.3125 5 5 C5 5.99 5 6.98 5 8 C2.5 6.25 2.5 6.25 0 4 C0 2.68 0 1.36 0 0 Z " fill="#949393" transform="translate(755,318)"/>
<path d="M0 0 C0 0.66 0 1.32 0 2 C-2.30368736 3.06652192 -4.64018187 4.06421005 -7 5 C-7.66 4.67 -8.32 4.34 -9 4 C-2.25 0 -2.25 0 0 0 Z " fill="#787877" transform="translate(775,718)"/>
<path d="M0 0 C0.75 1.75 0.75 1.75 1 4 C-0.9375 6.25 -0.9375 6.25 -3 8 C-3 4.42424104 -1.91159393 2.94704065 0 0 Z " fill="#7F7F7E" transform="translate(379,717)"/>
<path d="M0 0 C1.98 0 3.96 0 6 0 C6.33 1.65 6.66 3.3 7 5 C6.01 5 5.02 5 4 5 C3.67 4.01 3.34 3.02 3 2 C2.01 1.34 1.02 0.68 0 0 Z " fill="#949493" transform="translate(358,684)"/>
<path d="M0 0 C1.485 0.99 1.485 0.99 3 2 C3.1875 5.625 3.1875 5.625 3 9 C0.23776722 6.23776722 0.42143709 3.79293383 0 0 Z " fill="#757573" transform="translate(824,463)"/>
<path d="M0 0 C0.99 0.33 1.98 0.66 3 1 C3.33 3.31 3.66 5.62 4 8 C1.10067643 5.60490662 0.49831724 3.68754757 0 0 Z " fill="#7B7B7A" transform="translate(799,396)"/>
<path d="M0 0 C2.72426311 2.35277269 3.8141763 4.62496331 5 8 C3.0625 7.375 3.0625 7.375 1 6 C0.25 2.875 0.25 2.875 0 0 Z " fill="#80807E" transform="translate(751,363)"/>
<path d="M0 0 C2.475 0.495 2.475 0.495 5 1 C4.01 1.495 4.01 1.495 3 2 C2.01 1.34 1.02 0.68 0 0 Z " fill="#949493" transform="translate(304,749)"/>
<path d="M0 0 C4 1 4 1 4 1 Z " fill="#999898" transform="translate(465,710)"/>
<path d="M0 0 C0 3 0 3 0 3 Z " fill="#99999A" transform="translate(361,573)"/>
<path d="M0 0 C1 4 1 4 1 4 Z " fill="#9A9998" transform="translate(345,531)"/>
<path d="M0 0 C4 1 4 1 4 1 Z " fill="#9B9A99" transform="translate(672,309)"/>
<path d="" fill="#979797" transform="translate(0,0)"/>
<path d="M0 0 C0.66 0.66 1.32 1.32 2 2 C1.34 2 0.68 2 0 2 C0 1.34 0 0.68 0 0 Z " fill="#9C9B9C" transform="translate(585,580)"/>
<path d="" fill="#999999" transform="translate(0,0)"/>
<path d="M0 0 C0.66 0 1.32 0 2 0 C1.67 0.66 1.34 1.32 1 2 C0.67 1.34 0.34 0.68 0 0 Z " fill="#969595" transform="translate(737,347)"/>
<path d="M0 0 C3 1 3 1 3 1 Z " fill="#9A9898" transform="translate(688,315)"/>
<path d="M0 0 C2 1 2 1 2 1 Z " fill="#919090" transform="translate(340,759)"/>
<path d="M0 0 C2 1 2 1 2 1 Z " fill="#959494" transform="translate(652,742)"/>
<path d="M0 0 C2 1 2 1 2 1 Z " fill="#939595" transform="translate(649,737)"/>
<path d="M0 0 C2 1 2 1 2 1 Z " fill="#9A999A" transform="translate(555,710)"/>
<path d="M0 0 C2 1 2 1 2 1 Z " fill="#9A9A98" transform="translate(440,707)"/>
<path d="M0 0 C2 1 2 1 2 1 Z " fill="#9B9B9A" transform="translate(561,675)"/>
<path d="M0 0 C2 1 2 1 2 1 Z " fill="#9C9B99" transform="translate(575,673)"/>
<path d="M0 0 C2 1 2 1 2 1 Z " fill="#9C9B9B" transform="translate(608,667)"/>
<path d="" fill="#9A9A9C" transform="translate(0,0)"/>
<path d="M0 0 C2 1 2 1 2 1 Z " fill="#9A9A99" transform="translate(577,573)"/>
<path d="" fill="#999796" transform="translate(0,0)"/>
<path d="" fill="#999897" transform="translate(0,0)"/>
<path d="" fill="#9B9A9A" transform="translate(0,0)"/>
<path d="" fill="#979695" transform="translate(0,0)"/>
<path d="" fill="#939594" transform="translate(0,0)"/>
<path d="" fill="#9A999A" transform="translate(0,0)"/>
<path d="M0 0 C2 1 2 1 2 1 Z " fill="#999795" transform="translate(476,288)"/>
<path d="" fill="#4E4E4E" transform="translate(0,0)"/>
<path d="" fill="#949594" transform="translate(0,0)"/>
<path d="" fill="#919190" transform="translate(0,0)"/>
<path d="" fill="#949293" transform="translate(0,0)"/>
<path d="" fill="#929292" transform="translate(0,0)"/>
<path d="" fill="#939392" transform="translate(0,0)"/>
<path d="" fill="#929495" transform="translate(0,0)"/>
<path d="" fill="#949494" transform="translate(0,0)"/>
<path d="" fill="#959494" transform="translate(0,0)"/>
<path d="" fill="#959797" transform="translate(0,0)"/>
<path d="" fill="#969696" transform="translate(0,0)"/>
<path d="" fill="#949394" transform="translate(0,0)"/>
<path d="" fill="#949393" transform="translate(0,0)"/>
<path d="" fill="#959594" transform="translate(0,0)"/>
<path d="" fill="#979797" transform="translate(0,0)"/>
<path d="" fill="#959697" transform="translate(0,0)"/>
<path d="" fill="#8F8F8E" transform="translate(0,0)"/>
<path d="" fill="#999798" transform="translate(0,0)"/>
<path d="" fill="#979796" transform="translate(0,0)"/>
<path d="" fill="#9D9A9B" transform="translate(0,0)"/>
<path d="" fill="#9A9998" transform="translate(0,0)"/>
<path d="" fill="#9A9999" transform="translate(0,0)"/>
<path d="" fill="#9B9C99" transform="translate(0,0)"/>
<path d="" fill="#989796" transform="translate(0,0)"/>
<path d="" fill="#989A96" transform="translate(0,0)"/>
<path d="" fill="#989798" transform="translate(0,0)"/>
<path d="" fill="#999C99" transform="translate(0,0)"/>
<path d="" fill="#9A9897" transform="translate(0,0)"/>
<path d="" fill="#989895" transform="translate(0,0)"/>
<path d="" fill="#9A9B99" transform="translate(0,0)"/>
<path d="" fill="#99999A" transform="translate(0,0)"/>
<path d="" fill="#9B9B9B" transform="translate(0,0)"/>
<path d="" fill="#9B9A9A" transform="translate(0,0)"/>
<path d="" fill="#9C9B99" transform="translate(0,0)"/>
<path d="" fill="#9B999A" transform="translate(0,0)"/>
<path d="" fill="#9A9999" transform="translate(0,0)"/>
<path d="" fill="#949293" transform="translate(0,0)"/>
<path d="" fill="#9C999B" transform="translate(0,0)"/>
<path d="" fill="#949291" transform="translate(0,0)"/>
<path d="" fill="#979896" transform="translate(0,0)"/>
<path d="" fill="#9C9B9B" transform="translate(0,0)"/>
<path d="" fill="#9C9B9C" transform="translate(0,0)"/>
<path d="" fill="#979697" transform="translate(0,0)"/>
<path d="" fill="#9C9B9B" transform="translate(0,0)"/>
<path d="" fill="#9D9D9C" transform="translate(0,0)"/>
<path d="" fill="#9C9C9B" transform="translate(0,0)"/>
<path d="" fill="#939393" transform="translate(0,0)"/>
<path d="" fill="#9B9997" transform="translate(0,0)"/>
<path d="" fill="#9B9A99" transform="translate(0,0)"/>
<path d="" fill="#959695" transform="translate(0,0)"/>
<path d="" fill="#969595" transform="translate(0,0)"/>
<path d="" fill="#9A9B99" transform="translate(0,0)"/>
<path d="" fill="#989597" transform="translate(0,0)"/>
<path d="" fill="#989898" transform="translate(0,0)"/>
<path d="" fill="#9B9B9A" transform="translate(0,0)"/>
<path d="" fill="#9A9A9A" transform="translate(0,0)"/>
<path d="" fill="#9A9998" transform="translate(0,0)"/>
<path d="" fill="#9B9C9A" transform="translate(0,0)"/>
<path d="" fill="#9D9C9A" transform="translate(0,0)"/>
<path d="" fill="#9C9B99" transform="translate(0,0)"/>
<path d="" fill="#9C9C9B" transform="translate(0,0)"/>
<path d="" fill="#939494" transform="translate(0,0)"/>
<path d="" fill="#9A9A98" transform="translate(0,0)"/>
<path d="" fill="#91918F" transform="translate(0,0)"/>
<path d="" fill="#969798" transform="translate(0,0)"/>
<path d="" fill="#929293" transform="translate(0,0)"/>
<path d="" fill="#9E9D9D" transform="translate(0,0)"/>
<path d="" fill="#99979A" transform="translate(0,0)"/>
<path d="" fill="#979695" transform="translate(0,0)"/>
<path d="" fill="#969695" transform="translate(0,0)"/>
<path d="" fill="#9C9999" transform="translate(0,0)"/>
<path d="" fill="#9D9C9C" transform="translate(0,0)"/>
<path d="" fill="#9F9E9C" transform="translate(0,0)"/>
<path d="" fill="#999899" transform="translate(0,0)"/>
<path d="" fill="#999B99" transform="translate(0,0)"/>
<path d="" fill="#9E9A9B" transform="translate(0,0)"/>
<path d="" fill="#949594" transform="translate(0,0)"/>
<path d="" fill="#949493" transform="translate(0,0)"/>
<path d="" fill="#969596" transform="translate(0,0)"/>
<path d="" fill="#979896" transform="translate(0,0)"/>
<path d="" fill="#9E9D9D" transform="translate(0,0)"/>
<path d="" fill="#9A9B9B" transform="translate(0,0)"/>
<path d="" fill="#999A9B" transform="translate(0,0)"/>
<path d="" fill="#9F9D9E" transform="translate(0,0)"/>
<path d="" fill="#9B9B9A" transform="translate(0,0)"/>
<path d="" fill="#9B9A9A" transform="translate(0,0)"/>
<path d="" fill="#9E9D9D" transform="translate(0,0)"/>
<path d="" fill="#999899" transform="translate(0,0)"/>
<path d="" fill="#9E9E9E" transform="translate(0,0)"/>
<path d="" fill="#989997" transform="translate(0,0)"/>
<path d="" fill="#9D9C9B" transform="translate(0,0)"/>
<path d="" fill="#9C9B9A" transform="translate(0,0)"/>
<path d="" fill="#9B9998" transform="translate(0,0)"/>
<path d="" fill="#9B9A9A" transform="translate(0,0)"/>
<path d="" fill="#979898" transform="translate(0,0)"/>
<path d="" fill="#9A9998" transform="translate(0,0)"/>
<path d="" fill="#9B9C9B" transform="translate(0,0)"/>
<path d="" fill="#9A9A9A" transform="translate(0,0)"/>
<path d="" fill="#9A9A98" transform="translate(0,0)"/>
<path d="" fill="#999A99" transform="translate(0,0)"/>
<path d="" fill="#929493" transform="translate(0,0)"/>
<path d="" fill="#969797" transform="translate(0,0)"/>
<path d="" fill="#999797" transform="translate(0,0)"/>
<path d="" fill="#979798" transform="translate(0,0)"/>
<path d="" fill="#979495" transform="translate(0,0)"/>
<path d="" fill="#9A989B" transform="translate(0,0)"/>
<path d="" fill="#9C9A99" transform="translate(0,0)"/>
<path d="" fill="#969796" transform="translate(0,0)"/>
<path d="" fill="#9C9C9A" transform="translate(0,0)"/>
<path d="" fill="#9A9B9A" transform="translate(0,0)"/>
<path d="" fill="#969595" transform="translate(0,0)"/>
<path d="" fill="#99999A" transform="translate(0,0)"/>
<path d="" fill="#979796" transform="translate(0,0)"/>
<path d="" fill="#99989A" transform="translate(0,0)"/>
<path d="" fill="#989797" transform="translate(0,0)"/>
<path d="" fill="#999A9A" transform="translate(0,0)"/>
<path d="" fill="#9B9A98" transform="translate(0,0)"/>
<path d="" fill="#969697" transform="translate(0,0)"/>
<path d="" fill="#999A9A" transform="translate(0,0)"/>
<path d="" fill="#999798" transform="translate(0,0)"/>
<path d="" fill="#979794" transform="translate(0,0)"/>
<path d="" fill="#9B9A9A" transform="translate(0,0)"/>
<path d="" fill="#999899" transform="translate(0,0)"/>
<path d="" fill="#9D9B9B" transform="translate(0,0)"/>
<path d="" fill="#959494" transform="translate(0,0)"/>
<path d="" fill="#9C9E9C" transform="translate(0,0)"/>
<path d="" fill="#979697" transform="translate(0,0)"/>
<path d="" fill="#949594" transform="translate(0,0)"/>
<path d="" fill="#969796" transform="translate(0,0)"/>
<path d="" fill="#9B9B9A" transform="translate(0,0)"/>
<path d="" fill="#9B9C9B" transform="translate(0,0)"/>
<path d="" fill="#9A9A98" transform="translate(0,0)"/>
<path d="" fill="#9B9A99" transform="translate(0,0)"/>
<path d="" fill="#989A99" transform="translate(0,0)"/>
<path d="" fill="#969795" transform="translate(0,0)"/>
<path d="" fill="#999A98" transform="translate(0,0)"/>
<path d="" fill="#9A9897" transform="translate(0,0)"/>
<path d="" fill="#989897" transform="translate(0,0)"/>
<path d="" fill="#989896" transform="translate(0,0)"/>
<path d="" fill="#999B99" transform="translate(0,0)"/>
<path d="" fill="#969894" transform="translate(0,0)"/>
<path d="" fill="#939293" transform="translate(0,0)"/>
<path d="" fill="#939493" transform="translate(0,0)"/>
<path d="" fill="#9B9B99" transform="translate(0,0)"/>
<path d="" fill="#9A989A" transform="translate(0,0)"/>
<path d="" fill="#9B9999" transform="translate(0,0)"/>
<path d="" fill="#9A9999" transform="translate(0,0)"/>
<path d="" fill="#989897" transform="translate(0,0)"/>
<path d="" fill="#979794" transform="translate(0,0)"/>
<path d="" fill="#949493" transform="translate(0,0)"/>
<path d="" fill="#999A99" transform="translate(0,0)"/>
<path d="" fill="#969594" transform="translate(0,0)"/>
<path d="" fill="#989B98" transform="translate(0,0)"/>
<path d="" fill="#949495" transform="translate(0,0)"/>
<path d="" fill="#9B9A99" transform="translate(0,0)"/>
<path d="" fill="#9B999A" transform="translate(0,0)"/>
<path d="" fill="#999798" transform="translate(0,0)"/>
<path d="" fill="#9B9D9B" transform="translate(0,0)"/>
<path d="" fill="#9A9899" transform="translate(0,0)"/>
<path d="" fill="#9A9A98" transform="translate(0,0)"/>
<path d="" fill="#9C9C9B" transform="translate(0,0)"/>
<path d="" fill="#9D9D9A" transform="translate(0,0)"/>
<path d="" fill="#989898" transform="translate(0,0)"/>
<path d="" fill="#9C9A99" transform="translate(0,0)"/>
<path d="" fill="#949394" transform="translate(0,0)"/>
<path d="" fill="#959895" transform="translate(0,0)"/>
<path d="" fill="#989897" transform="translate(0,0)"/>
<path d="" fill="#9B9A9B" transform="translate(0,0)"/>
<path d="" fill="#969795" transform="translate(0,0)"/>
<path d="" fill="#9C999B" transform="translate(0,0)"/>
<path d="" fill="#9A9B9A" transform="translate(0,0)"/>
<path d="" fill="#9D9B99" transform="translate(0,0)"/>
<path d="" fill="#9B9B9A" transform="translate(0,0)"/>
<path d="" fill="#919392" transform="translate(0,0)"/>
<path d="" fill="#9A9A99" transform="translate(0,0)"/>
<path d="" fill="#9C9B9B" transform="translate(0,0)"/>
<path d="" fill="#9B9B9A" transform="translate(0,0)"/>
<path d="" fill="#9D9C9B" transform="translate(0,0)"/>
<path d="" fill="#9A9799" transform="translate(0,0)"/>
<path d="" fill="#9D9C9C" transform="translate(0,0)"/>
<path d="" fill="#989899" transform="translate(0,0)"/>
<path d="" fill="#9E9D9C" transform="translate(0,0)"/>
<path d="" fill="#969497" transform="translate(0,0)"/>
<path d="" fill="#9A9C9C" transform="translate(0,0)"/>
<path d="" fill="#9F9D9E" transform="translate(0,0)"/>
<path d="" fill="#98989A" transform="translate(0,0)"/>
<path d="" fill="#969793" transform="translate(0,0)"/>
<path d="" fill="#989798" transform="translate(0,0)"/>
<path d="" fill="#9D9B9B" transform="translate(0,0)"/>
<path d="" fill="#979799" transform="translate(0,0)"/>
<path d="" fill="#9A9A9A" transform="translate(0,0)"/>
<path d="" fill="#9A9999" transform="translate(0,0)"/>
<path d="" fill="#9B9A99" transform="translate(0,0)"/>
<path d="" fill="#9D9C9A" transform="translate(0,0)"/>
<path d="" fill="#9A9898" transform="translate(0,0)"/>
<path d="" fill="#999998" transform="translate(0,0)"/>
<path d="" fill="#989697" transform="translate(0,0)"/>
<path d="" fill="#969695" transform="translate(0,0)"/>
<path d="" fill="#949595" transform="translate(0,0)"/>
<path d="" fill="#949495" transform="translate(0,0)"/>
</svg>
