<?xml version="1.0" encoding="UTF-8"?>
<svg version="1.1" xmlns="http://www.w3.org/2000/svg" width="1024" height="1024">
<path d="M0 0 C5.71926291 0.00569658 11.43847925 0.00228981 17.15774059 -0.00343132 C60.74385771 -0.04050435 104.31689891 0.50479954 147.86475372 2.41000366 C150.1249249 2.50858366 152.38517537 2.60516304 154.64544678 2.70141602 C222.76257853 5.61483115 222.76257853 5.61483115 248.36376953 10.13037109 C249.78085205 10.37327881 249.78085205 10.37327881 251.2265625 10.62109375 C284.85273192 16.5320078 316.94724749 29.71267751 337.48510742 58.22143555 C344.41279934 68.26411962 349.77253152 79.47517136 353.36376953 91.13037109 C353.68861328 92.17451172 354.01345703 93.21865234 354.34814453 94.29443359 C362.47964583 122.5044881 364.66887436 152.86323126 366.24975586 182.04849243 C366.32800789 183.47736705 366.40973467 184.90605435 366.49438477 186.33456421 C367.70298297 207.09967092 367.60936494 227.90027697 367.61376953 248.69287109 C367.61421139 249.64886452 367.61465324 250.60485794 367.61510849 251.58982086 C367.62219445 280.85742433 367.42237085 309.99201065 364.36376953 339.13037109 C364.27184326 340.01243225 364.17991699 340.89449341 364.08520508 341.80328369 C363.41602393 348.14767908 362.69418888 354.48468348 361.92626953 360.81787109 C361.82907623 361.61972839 361.73188293 362.42158569 361.63174438 363.2477417 C358.03647132 392.25266105 351.79096747 422.31273721 332.36376953 445.13037109 C331.65607422 445.98759766 330.94837891 446.84482422 330.21923828 447.72802734 C300.20216688 482.72090157 255.72958798 487.46909252 212.49316406 490.81445312 C211.79813782 490.86756653 211.10311157 490.92067993 210.38702393 490.97540283 C208.49606408 491.12023818 206.60543917 491.26942813 204.71484375 491.41894531 C184.3571172 492.98448874 163.9546144 493.56682032 143.55126953 494.19287109 C142.2399707 494.23316437 140.92867187 494.27345764 139.57763672 494.31497192 C130.62245938 494.58615239 121.66681842 494.83389759 112.71061707 495.06845474 C110.26729234 495.13291643 107.82401489 495.19900559 105.3807373 495.26522827 C77.55888724 496.01294695 49.75095261 496.33139485 21.91927719 496.31925201 C18.67377415 496.31784287 15.42827308 496.31795673 12.18276978 496.3180542 C-52.70896835 496.30366232 -117.83342407 495.83097664 -182.63623047 492.13037109 C-183.99107544 492.0536618 -183.99107544 492.0536618 -185.37329102 491.97540283 C-288.58156632 486.0593907 -288.58156632 486.0593907 -320.96435547 450.57958984 C-349.43804173 417.11816602 -354.24479609 371.71524499 -356.86474609 329.44335938 C-356.93886719 328.2688623 -357.01298828 327.09436523 -357.08935547 325.88427734 C-357.14768555 324.82668213 -357.20601562 323.76908691 -357.26611328 322.67944336 C-357.40040544 319.96741964 -357.40040544 319.96741964 -359.63623047 318.13037109 C-358.97623047 318.13037109 -358.31623047 318.13037109 -357.63623047 318.13037109 C-357.70116699 317.15511475 -357.76610352 316.1798584 -357.83300781 315.17504883 C-358.73335921 300.85773229 -359.01977748 286.5343083 -359.26123047 272.19287109 C-359.28335602 270.89757477 -359.30548157 269.60227844 -359.32827759 268.26773071 C-359.71134606 244.85920883 -359.55017964 221.52292342 -358.63623047 198.13037109 C-358.6059375 197.31945007 -358.57564453 196.50852905 -358.54443359 195.67303467 C-354.11895855 77.40044855 -354.11895855 77.40044855 -314.63623047 40.13037109 C-310.50798424 36.50363033 -306.13609587 33.27797516 -301.63623047 30.13037109 C-300.87568359 29.57994141 -300.11513672 29.02951172 -299.33154297 28.46240234 C-278.12971788 14.39072839 -250.3649181 10.57813459 -225.63623047 8.13037109 C-224.43933594 8.00952148 -223.24244141 7.88867188 -222.00927734 7.76416016 C-181.38879119 3.77261162 -140.43189943 2.08484289 -99.63623047 1.13037109 C-98.80019035 1.11074814 -97.96415024 1.09112518 -97.10277557 1.07090759 C-64.73324983 0.3187733 -32.37806194 -0.03253578 0 0 Z M-188.35595703 38.97149658 C-190.56090378 39.12512282 -192.76626467 39.26808634 -194.97216797 39.40722656 C-196.24318359 39.4898877 -197.51419922 39.57254883 -198.82373047 39.65771484 C-200.45375 39.76007446 -200.45375 39.76007446 -202.11669922 39.86450195 C-204.62917584 39.98064271 -204.62917584 39.98064271 -206.63623047 41.13037109 C-208.09402636 41.17030076 -209.55348898 41.15661488 -211.01123047 41.11474609 C-216.95641441 41.0593032 -222.74091446 41.65570226 -228.63623047 42.38037109 C-229.72403809 42.51241943 -230.8118457 42.64446777 -231.93261719 42.78051758 C-257.03998233 45.98677351 -281.67322326 51.93038637 -298.63623047 72.13037109 C-345.43710047 137.21150858 -329.37074851 273.33804022 -317.76123047 370.31787109 C-313.52134757 394.88406353 -306.09740254 421.64161567 -285.51123047 437.54443359 C-254.36363785 459.35767379 -210.44070282 457.39015707 -173.94873047 459.19287109 C-172.25270459 459.27768393 -170.55668003 459.36252323 -168.86065674 459.4473877 C-156.78758546 460.04808956 -144.71273976 460.60358085 -132.63623047 461.13037109 C-131.89432716 461.16295769 -131.15242386 461.19554428 -130.38803864 461.22911835 C-51.33316003 464.68932761 28.27042055 464.44868393 148.36376953 461.13037109 C149.0480024 461.10271164 149.73223526 461.07505219 150.43720245 461.04655457 C194.98725134 459.27792027 194.98725134 459.27792027 239.36376953 455.13037109 C240.30333496 455.01725586 241.24290039 454.90414063 242.2109375 454.78759766 C266.24783176 451.76601685 289.16029412 444.82827744 305.41845703 425.73974609 C311.67335016 417.34964849 316.32472238 408.13604751 319.36376953 398.13037109 C319.75048828 396.93283203 320.13720703 395.73529297 320.53564453 394.50146484 C327.14334935 373.13449413 329.91534256 350.38878082 331.36376953 328.13037109 C331.44723633 326.89851074 331.53070312 325.66665039 331.61669922 324.39746094 C342.25107078 200.02222131 342.25107078 200.02222131 306.98876953 74.13037109 C305.48122467 72.43277798 303.93985057 70.76453217 302.36376953 69.13037109 C301.22488281 67.94894531 301.22488281 67.94894531 300.06298828 66.74365234 C272.94443267 40.60154227 229.75899048 40.67983112 194.36376953 38.13037109 C192.4258252 37.98752686 192.4258252 37.98752686 190.44873047 37.84179688 C102.83124784 31.58340526 14.22265542 32.24384393 -188.35595703 38.97149658 Z " fill="#8B8B8B" transform="translate(507.63623046875,269.86962890625)"/>
<path d="M0 0 C1.08893555 0.62310059 2.17787109 1.24620117 3.29980469 1.88818359 C12.09287132 6.94653347 20.79279221 12.16268073 29.47338867 17.41113281 C36.70211912 21.77970444 43.9927107 26.01771531 51.34008789 30.18286133 C58.8511193 34.44839404 66.3039475 38.81001719 73.75 43.1875 C84.17376077 49.31403429 94.62506142 55.38968814 105.10424805 61.42114258 C113.25229302 66.11281836 121.37683611 70.84358709 129.49389648 75.58862305 C134.81836082 78.69856123 140.1496791 81.79615985 145.4921875 84.875 C146.07333313 85.20991455 146.65447876 85.5448291 147.25323486 85.88989258 C150.05461183 87.50373886 152.85690788 89.11596889 155.66015625 90.7265625 C160.50631497 93.51509996 165.34461553 96.31628966 170.15625 99.1640625 C171.33864258 99.86329834 171.33864258 99.86329834 172.54492188 100.57666016 C175.33854852 102.37439812 177.01363423 103.91807443 178.5625 106.875 C179.36885697 113.22506116 178.47955295 115.67274671 174.5625 120.875 C171.71264648 123.02148438 171.71264648 123.02148438 168.43359375 124.96875 C167.84385269 125.32336304 167.25411163 125.67797607 166.64649963 126.04333496 C164.77146248 127.16639483 162.88608034 128.27061051 161 129.375 C159.76167327 130.11472064 158.52403667 130.8555979 157.28710938 131.59765625 C150.99267105 135.35719032 144.62792261 138.96506841 138.17407227 142.44482422 C133.65718569 144.91840761 129.23779799 147.55460232 124.8125 150.1875 C123.85005371 150.75799072 122.88760742 151.32848145 121.89599609 151.91625977 C116.64852595 155.02972361 111.4130289 158.16239554 106.1875 161.3125 C94.69275997 168.23867309 83.0607348 174.93540938 71.45849609 181.67919922 C61.12443295 187.68645862 50.79984935 193.70399329 40.5625 199.875 C30.20845807 206.11486002 19.77902106 212.22084464 9.31396484 218.27246094 C6.79755557 219.7380963 4.29715099 221.22714212 1.80078125 222.7265625 C0.40904435 223.54719762 -0.98286817 224.36753503 -2.375 225.1875 C-2.97022461 225.55447998 -3.56544922 225.92145996 -4.17871094 226.29956055 C-9.67128282 229.49007575 -15.34885174 230.43095669 -21.5625 229.3125 C-26.01887481 227.08431259 -30.17155134 224.30780278 -32.51593304 219.80255032 C-33.72693639 215.95554474 -33.71699526 212.2946369 -33.69819641 208.3037262 C-33.70202196 207.44205792 -33.70584751 206.58038964 -33.70978898 205.6926102 C-33.72010533 202.80616045 -33.71612941 199.91991012 -33.7121582 197.03344727 C-33.71650541 194.96365169 -33.72168859 192.89385773 -33.72764587 190.82406616 C-33.74104573 185.20221974 -33.74161347 179.5804405 -33.73908257 173.95858121 C-33.73801359 169.26659062 -33.74289435 164.57461367 -33.747688 159.882626 C-33.75878648 148.81456258 -33.75921858 137.74653309 -33.75317383 126.6784668 C-33.74713199 115.25690919 -33.75944967 103.83547471 -33.7807439 92.41393811 C-33.79835081 82.60999502 -33.80436271 72.80609115 -33.80110615 63.00213283 C-33.79929179 57.14568576 -33.80194482 51.28932653 -33.81582069 45.43289375 C-33.82837965 39.92615869 -33.82647317 34.41961581 -33.81340981 28.91288376 C-33.81104031 26.89163969 -33.81379201 24.87038218 -33.82203293 22.84915352 C-33.8324704 20.09029752 -33.8244238 17.33208999 -33.8117218 14.57325745 C-33.81909609 13.773155 -33.82647037 12.97305256 -33.83406812 12.14870459 C-33.7794186 6.5077821 -32.65277051 2.32670309 -28.75390625 -1.98828125 C-28.17511719 -2.46652344 -27.59632813 -2.94476563 -27 -3.4375 C-26.42378906 -3.92863281 -25.84757812 -4.41976563 -25.25390625 -4.92578125 C-16.71855502 -10.56094862 -7.56432108 -4.42220025 0 0 Z M0.5625 38.875 C0.5625 87.715 0.5625 136.555 0.5625 186.875 C9.88089989 181.79768103 9.88089989 181.79768103 19.0625 176.5 C19.7627832 176.0862915 20.46306641 175.67258301 21.18457031 175.24633789 C23.6452878 173.79158888 26.10407116 172.33361327 28.5625 170.875 C32.81240285 168.35400281 37.06238416 165.83313809 41.3125 163.3125 C42.16140808 162.80881393 42.16140808 162.80881393 43.02746582 162.29495239 C52.27091096 156.81115783 61.5364831 151.36598746 70.8125 145.9375 C80.43141712 140.30764401 90.02150859 134.63602823 99.5625 128.875 C100.84071672 128.11126053 102.11938021 127.3482684 103.3984375 126.5859375 C107.12793589 124.36232428 110.84873848 122.12479197 114.5625 119.875 C116.23892578 118.85986328 116.23892578 118.85986328 117.94921875 117.82421875 C119.45935547 116.89029297 119.45935547 116.89029297 121 115.9375 C121.88558594 115.39222656 122.77117187 114.84695313 123.68359375 114.28515625 C124.30363281 113.81980469 124.92367187 113.35445312 125.5625 112.875 C125.5625 112.215 125.5625 111.555 125.5625 110.875 C125.0677417 110.59527344 124.5729834 110.31554687 124.06323242 110.02734375 C112.84752079 103.67598594 101.70303644 97.21307324 90.625 90.625 C82.8770227 86.01782782 75.12163888 81.43756729 67.27734375 76.99609375 C58.98744039 72.28532327 50.7788459 67.43022912 42.54736328 62.6184082 C40.50488931 61.42543367 38.46155298 60.23393467 36.41748047 59.04370117 C30.90375547 55.83304124 25.40201596 52.60621231 19.9375 49.3125 C19.31141846 48.93681885 18.68533691 48.5611377 18.0402832 48.17407227 C15.17114413 46.45155848 12.30911383 44.71946233 9.45703125 42.96875 C8.56371094 42.4221875 7.67039062 41.875625 6.75 41.3125 C5.98042969 40.83683594 5.21085937 40.36117187 4.41796875 39.87109375 C2.61980069 38.71733556 2.61980069 38.71733556 0.5625 38.875 Z " fill="#8B8C8B" transform="translate(443.4375,405.125)"/>
<path d="M0 0 C4.63740902 0.00008176 9.27472027 -0.00697379 13.91210938 -0.02050781 C43.95944591 -0.10683256 73.8700886 0.43251923 103.86938477 2.18530273 C103.86938477 2.51530273 103.86938477 2.84530273 103.86938477 3.18530273 C102.40949505 3.19165064 102.40949505 3.19165064 100.92011261 3.19812679 C77.03878258 3.30215789 53.15747797 3.41099835 29.27619171 3.52464199 C17.72653567 3.57949629 6.17687661 3.63288951 -5.37280273 3.68261719 C-15.46075633 3.72605529 -25.54869156 3.77246462 -35.63661623 3.82218128 C-40.9587417 3.84831362 -46.28086466 3.8731361 -51.60301208 3.89437675 C-72.46597555 3.97861806 -93.32190638 4.13610815 -114.17944336 4.64257812 C-114.99834014 4.66168774 -115.81723692 4.68079736 -116.66094875 4.70048606 C-125.5035851 4.91180629 -134.29894457 5.25972108 -143.11708832 5.97609615 C-147.91430125 6.30913068 -152.69942155 6.29334247 -157.50561523 6.24780273 C-158.44405273 6.24329102 -159.38249023 6.2387793 -160.34936523 6.23413086 C-162.60985665 6.22259774 -164.87019586 6.20633441 -167.13061523 6.18530273 C-167.13061523 5.85530273 -167.13061523 5.52530273 -167.13061523 5.18530273 C-166.35975586 5.1247168 -165.58889648 5.06413086 -164.79467773 5.00170898 C-163.79178711 4.91791992 -162.78889648 4.83413086 -161.75561523 4.74780273 C-160.75788086 4.6665918 -159.76014648 4.58538086 -158.73217773 4.50170898 C-156.1513391 4.33564647 -156.1513391 4.33564647 -154.13061523 3.18530273 C-152.68152047 3.04383648 -151.22666426 2.95928231 -149.77172852 2.90405273 C-148.85859894 2.86731445 -147.94546936 2.83057617 -147.00466919 2.79272461 C-145.99693451 2.75727539 -144.98919983 2.72182617 -143.95092773 2.68530273 C-142.34228348 2.62439453 -142.34228348 2.62439453 -140.70114136 2.56225586 C-138.38914233 2.47599266 -136.07705417 2.39209262 -133.76489258 2.31030273 C-130.44249789 2.19195947 -127.12057494 2.06441002 -123.79858398 1.93530273 C-82.55172632 0.3916146 -41.27224027 -0.00380153 0 0 Z " fill="#868684" transform="translate(508.130615234375,269.814697265625)"/>
<path d="M0 0 C26.97095001 1.02593915 53.93473986 1.39759201 80.92399693 1.40097141 C81.62009721 1.40106339 82.31619749 1.40115536 83.03339171 1.40125012 C97.84829099 1.40160904 112.66309537 1.37130095 127.47791672 1.32527351 C134.16957212 1.30454988 140.86123318 1.28740217 147.55290318 1.27206516 C149.49357512 1.26741529 149.49357512 1.26741529 151.47345257 1.26267147 C177.75219675 1.21017507 204.01335697 1.65296225 230.28337193 2.29940891 C230.28337193 2.62940891 230.28337193 2.95940891 230.28337193 3.29940891 C167.91932237 5.96945564 105.49448693 5.72813994 43.10241413 4.48752308 C39.97054629 4.42563748 36.83864934 4.36546822 33.70674229 4.30560398 C5.8707175 3.76766194 -21.9148697 2.78596856 -49.71662807 1.29940891 C-49.71662807 0.96940891 -49.71662807 0.63940891 -49.71662807 0.29940891 C-33.0837411 -0.62971281 -16.64181185 -0.63435503 0 0 Z " fill="#767675" transform="translate(398.716628074646,730.7005910873413)"/>
<path d="M0 0 C8.77974096 -0.02318774 17.55947134 -0.04094789 26.33923626 -0.05181217 C30.41619131 -0.05702692 34.49312538 -0.064099 38.57006836 -0.07543945 C42.50579344 -0.08631837 46.44149836 -0.09228745 50.37723732 -0.09487724 C51.87750376 -0.09672247 53.37776912 -0.10032572 54.87802696 -0.10573006 C56.98210393 -0.11300691 59.08609799 -0.11398814 61.19018555 -0.11352539 C62.38709518 -0.115746 63.58400482 -0.11796661 64.81718445 -0.12025452 C67.67283652 -0.01236103 70.22623587 0.34091298 73 1 C73 1.33 73 1.66 73 2 C97.75 2.495 97.75 2.495 123 3 C123 3.33 123 3.66 123 4 C107.1041752 4.03042521 91.20834987 4.05091284 75.3125 4.0625 C73.56333408 4.06378403 73.56333408 4.06378403 71.77883148 4.06509399 C37.17451442 4.08755835 2.592793 3.97810875 -32 3 C-32 2.67 -32 2.34 -32 2 C-21.44 1.67 -10.88 1.34 0 1 C0 0.67 0 0.34 0 0 Z " fill="#9F9F9E" transform="translate(451,762)"/>
<path d="M0 0 C0.33 0 0.66 0 1 0 C1.05534912 0.98919434 1.11069824 1.97838867 1.16772461 2.99755859 C1.37390875 6.66171962 1.58585565 10.32552835 1.79956055 13.98925781 C1.89130792 15.57608142 1.9814846 17.16299664 2.07006836 18.75 C2.19754457 21.02890424 2.33063485 23.3074211 2.46484375 25.5859375 C2.50343002 26.29744965 2.5420163 27.00896179 2.58177185 27.74203491 C2.76642661 31.49596342 2.76642661 31.49596342 4 35 C4.10355263 37.64697927 4.14680869 40.26783554 4.14526367 42.9152832 C4.15030159 44.14260918 4.15030159 44.14260918 4.15544128 45.39472961 C4.16497612 48.11342878 4.16689651 50.83206638 4.16796875 53.55078125 C4.17118262 55.44492111 4.17454679 57.33906073 4.17805481 59.23320007 C4.18405452 63.21544977 4.18589415 67.19767774 4.18530273 71.17993164 C4.18520176 76.25231076 4.19878296 81.32454786 4.21607494 86.3968935 C4.22727181 90.31687542 4.2292195 94.23682403 4.22869301 98.1568203 C4.22986431 100.02448193 4.23423768 101.89214466 4.24202538 103.75979042 C4.28088067 114.05230814 4.03233852 123.87037299 2 134 C1.67 134 1.34 134 1 134 C1.00222061 132.83283447 1.00444122 131.66566895 1.00672913 130.46313477 C1.02710254 119.4015793 1.04204004 108.3400277 1.05181217 97.27845764 C1.05700518 91.59318248 1.06403687 85.90792261 1.07543945 80.22265625 C1.08639676 74.72427218 1.09230373 69.2259027 1.09487724 63.72750854 C1.09670855 61.6418332 1.10028399 59.55615854 1.10573006 57.4704895 C1.13264977 46.72236357 1.03106131 36.05040707 0.22485352 25.3293457 C-0.12036113 20.21784509 -0.10937818 15.12053948 -0.0625 10 C-0.05798828 9.02289063 -0.05347656 8.04578125 -0.04882812 7.0390625 C-0.03732603 4.69263518 -0.02108866 2.34635714 0 0 Z " fill="#70706F" transform="translate(871,442)"/>
<path d="M0 0 C4.1117256 -0.02465746 8.22342278 -0.04283959 12.33520508 -0.05493164 C13.73495228 -0.0599708 15.1346942 -0.06680216 16.53442383 -0.07543945 C18.54245777 -0.0875232 20.55052957 -0.09269807 22.55859375 -0.09765625 C24.37315063 -0.10551147 24.37315063 -0.10551147 26.22436523 -0.11352539 C29 0 29 0 30 1 C31.6355424 1.14549821 33.27685644 1.22722161 34.91796875 1.28125 C35.92537109 1.31863281 36.93277344 1.35601562 37.97070312 1.39453125 C39.03224609 1.42933594 40.09378906 1.46414063 41.1875 1.5 C47.21707513 1.70135872 53.05403613 1.92422253 59 3 C61.78833541 3.24938889 64.57997383 3.40834395 67.375 3.5625 C68.11105469 3.60568359 68.84710937 3.64886719 69.60546875 3.69335938 C71.40348068 3.79843799 73.20171958 3.89962093 75 4 C75 4.33 75 4.66 75 5 C61.35674096 5.11351918 47.74003192 5.03988432 34.10346222 4.60001945 C12.16366194 3.90342923 -9.78016538 3.68475516 -31.72894287 3.46777344 C-36.85968407 3.41635926 -41.99038646 3.36131759 -47.12109375 3.30664062 C-57.08069558 3.20100795 -67.04033197 3.09918193 -77 3 C-77 2.67 -77 2.34 -77 2 C-51.59 1.67 -26.18 1.34 0 1 C0 0.67 0 0.34 0 0 Z " fill="#9F9F9D" transform="translate(589,301)"/>
<path d="M0 0 C0.33 0 0.66 0 1 0 C4.85726672 38.38335353 3.33127077 77.50998786 2 116 C1.67 116 1.34 116 1 116 C0.82472604 106.60431516 0.65869999 97.20847848 0.5 87.8125 C0.48812275 87.10960217 0.4762455 86.40670433 0.46400833 85.68250656 C-0.01517175 57.11988727 -0.11727673 28.56680798 0 0 Z " fill="#70706F" transform="translate(841,448)"/>
<path d="M0 0 C0 0.33 0 0.66 0 1 C-4.54877145 1.29127011 -9.09790667 1.57571583 -13.64746094 1.85449219 C-15.18728466 1.94973243 -16.7270045 2.04667112 -18.26660156 2.14550781 C-28.86013714 2.824048 -39.38491124 3.13015776 -50 3 C-50 3.66 -50 4.32 -50 5 C-78.36208985 6.26212731 -106.62794531 5.76264625 -135 5 C-135 4.67 -135 4.34 -135 4 C-134.13082443 3.97938507 -133.26164886 3.95877014 -132.36613464 3.93753052 C-121.30640499 3.67405691 -110.24688693 3.40248445 -99.1875 3.125 C-98.30755119 3.10295753 -97.42760239 3.08091507 -96.52098846 3.05820465 C-73.5691547 2.48135624 -50.63119751 1.8542276 -27.70385742 0.60986328 C-18.45435307 0.11262718 -9.26454462 -0.10707509 0 0 Z " fill="#969594" transform="translate(714,728)"/>
<path d="M0 0 C0 0.33 0 0.66 0 1 C-0.65895264 1.02505615 -1.31790527 1.0501123 -1.99682617 1.07592773 C-5.06048852 1.19389465 -8.12398826 1.31568677 -11.1875 1.4375 C-12.22326172 1.47681641 -13.25902344 1.51613281 -14.32617188 1.55664062 C-15.88754883 1.61948242 -15.88754883 1.61948242 -17.48046875 1.68359375 C-18.41785889 1.72025146 -19.35524902 1.75690918 -20.32104492 1.79467773 C-22.38962812 1.91012524 -24.45804969 2.04488997 -26.51997375 2.2469635 C-37.43747313 3.26879513 -48.31710318 3.02521321 -59.26953125 2.87890625 C-61.40328925 2.85455796 -63.53705309 2.83071691 -65.67082214 2.80735779 C-71.2454807 2.7449848 -76.82003378 2.67578951 -82.39459229 2.60510254 C-88.09960185 2.5339924 -93.80468527 2.46943222 -99.50976562 2.40429688 C-110.6732583 2.27588901 -121.83665042 2.14026318 -133 2 C-133 1.67 -133 1.34 -133 1 C-119.83340092 0.82786951 -106.6667347 0.66142856 -93.5 0.5 C-92.04728384 0.48218412 -92.04728384 0.48218412 -90.56521988 0.46400833 C-60.37535252 0.09551271 -30.19246258 -0.15671245 0 0 Z " fill="#5D5D5C" transform="translate(613,763)"/>
<path d="M0 0 C4.23147446 0.13379952 8.46325069 0.25728047 12.69500732 0.3817749 C20.9218879 0.62525158 29.14837971 0.87965482 37.37469482 1.14154053 C37.37469482 1.47154053 37.37469482 1.80154053 37.37469482 2.14154053 C31.82869847 2.28659441 26.28263963 2.42887228 20.73651123 2.56878662 C18.85726082 2.61656146 16.97802817 2.66504155 15.09881592 2.71429443 C-3.87674705 3.21071867 -22.66588252 3.1099855 -41.62530518 2.14154053 C-43.57580821 2.04482673 -45.526329 1.94847039 -47.47686768 1.85247803 C-52.19322776 1.61960673 -56.90932323 1.38194308 -61.62530518 1.14154053 C-61.62530518 0.81154053 -61.62530518 0.48154053 -61.62530518 0.14154053 C-41.02990976 -1.09154453 -20.60117928 -0.66098139 0 0 Z " fill="#7F7E7E" transform="translate(410.62530517578125,730.8584594726563)"/>
<path d="M0 0 C1.93227229 0.05343961 3.86456414 0.10617686 5.796875 0.15820312 C10.44818064 0.2849222 15.09912241 0.42097109 19.75 0.5625 C19.75 0.8925 19.75 1.2225 19.75 1.5625 C18.61159668 1.58755615 17.47319336 1.6126123 16.30029297 1.63842773 C12.0098457 1.73377673 7.71951337 1.83366682 3.42919922 1.93481445 C1.58482584 1.97768819 -0.25957526 2.01938817 -2.10400391 2.05981445 C-11.81355776 2.27341409 -21.4659541 2.58919841 -31.14892578 3.35522461 C-35.97665879 3.67790964 -40.78880939 3.67082396 -45.625 3.625 C-46.5634375 3.62048828 -47.501875 3.61597656 -48.46875 3.61132812 C-50.72924141 3.59979501 -52.98958063 3.58353167 -55.25 3.5625 C-55.25 3.2325 -55.25 2.9025 -55.25 2.5625 C-54.47914063 2.50191406 -53.70828125 2.44132812 -52.9140625 2.37890625 C-51.91117187 2.29511719 -50.90828125 2.21132813 -49.875 2.125 C-48.87726563 2.04378906 -47.87953125 1.96257812 -46.8515625 1.87890625 C-44.27072387 1.71284374 -44.27072387 1.71284374 -42.25 0.5625 C-39.33240324 0.30695643 -36.43937367 0.11310067 -33.515625 -0.02734375 C-32.62828674 -0.07052231 -31.74094849 -0.11370087 -30.82672119 -0.15818787 C-20.53997205 -0.59516512 -10.28612849 -0.31515635 0 0 Z " fill="#6C6C6A" transform="translate(396.25,272.4375)"/>
<path d="M0 0 C1.4342432 0.00503243 2.86848815 0.00959221 4.30273438 0.01367188 C7.76435998 0.02452241 11.22591822 0.0416876 14.6875 0.0625 C14.6875 0.3925 14.6875 0.7225 14.6875 1.0625 C-22.18954558 4.64415209 -22.18954558 4.64415209 -37.3125 4.0625 C-26.34403757 -1.81346201 -12.11982268 -0.07513751 0 0 Z " fill="#777776" transform="translate(321.3125,275.9375)"/>
<path d="M0 0 C0.5671875 0.2170459 1.134375 0.4340918 1.71875 0.65771484 C0.91655029 1.12669189 0.11435059 1.59566895 -0.7121582 2.07885742 C-3.69431417 3.82520001 -6.67399249 5.57562611 -9.65209961 7.32885742 C-10.94019601 8.08603719 -12.22925109 8.84158856 -13.51928711 9.59545898 C-15.3760976 10.68092392 -17.2293529 11.77224704 -19.08203125 12.86474609 C-20.75519409 13.84664917 -20.75519409 13.84664917 -22.4621582 14.84838867 C-24.77998759 16.33599875 -26.41240396 17.68786959 -28.28125 19.65771484 C-31.21927246 21.01372521 -34.12565045 21.9564705 -37.28125 22.65771484 C-35.81147419 18.82948557 -33.95846683 17.5731957 -30.40625 15.63427734 C-29.42011719 15.08771484 -28.43398438 14.54115234 -27.41796875 13.97802734 C-26.38285156 13.41857422 -25.34773438 12.85912109 -24.28125 12.28271484 C-22.25970379 11.1720322 -20.23886459 10.06006171 -18.21875 8.94677734 C-17.22746094 8.40698242 -16.23617188 7.8671875 -15.21484375 7.31103516 C-11.52695593 5.23260837 -7.97379256 2.96549752 -4.4375 0.63964844 C-2.28125 -0.34228516 -2.28125 -0.34228516 0 0 Z " fill="#7F807F" transform="translate(508.28125,555.34228515625)"/>
<path d="M0 0 C3.99157875 1.48072459 7.57132255 3.36648009 11.26171875 5.484375 C12.14776543 5.99149017 12.14776543 5.99149017 13.05171204 6.5088501 C14.29893371 7.22346186 15.54527187 7.93961762 16.79077148 8.65722656 C18.66268763 9.7357047 20.53711587 10.80969525 22.41210938 11.8828125 C29.32179068 15.84415701 36.19132752 19.86683282 43 24 C39.32617188 25.14501953 39.32617188 25.14501953 36.390625 23.83984375 C34.83601562 22.89818359 34.83601562 22.89818359 33.25 21.9375 C32.02253504 21.20245725 30.79463348 20.46814332 29.56640625 19.734375 C28.86531738 19.31091797 28.16422852 18.88746094 27.44189453 18.45117188 C24.5746122 16.74720005 21.67799276 15.09964029 18.77734375 13.453125 C16.58065891 12.19803962 14.38404462 10.94283077 12.1875 9.6875 C11.10694336 9.07704834 10.02638672 8.46659668 8.91308594 7.83764648 C7.90407227 7.25571533 6.89505859 6.67378418 5.85546875 6.07421875 C4.94434326 5.55432373 4.03321777 5.03442871 3.09448242 4.4987793 C1 3 1 3 0 0 Z " fill="#7D7E7D" transform="translate(482,464)"/>
<path d="M0 0 C4.65870008 0.14117273 6.85978381 2.28732649 9.8984375 5.5 C14.58808662 11.07876476 18.85389504 17.00925902 23 23 C23.62390625 23.89460938 24.2478125 24.78921875 24.890625 25.7109375 C26 28 26 28 25.6875 30.3125 C25.460625 30.869375 25.23375 31.42625 25 32 C24.07380859 30.56720703 24.07380859 30.56720703 23.12890625 29.10546875 C13.12473455 13.70080187 13.12473455 13.70080187 0 1 C0 0.67 0 0.34 0 0 Z " fill="#818180" transform="translate(826,311)"/>
<path d="M0 0 C0.61206299 0.1139209 1.22412598 0.2278418 1.85473633 0.34521484 C10.11664174 1.86664681 18.39987503 3.25248918 26.6875 4.625 C28.08269502 4.85669421 29.47787739 5.08846456 30.87304688 5.3203125 C34.248553 5.88108392 37.62422771 6.4408328 41 7 C41 7.33 41 7.66 41 8 C27.5261987 8.97166836 15.06300207 6.05111739 2 3 C2 2.34 2 1.68 2 1 C1.34 0.67 0.68 0.34 0 0 Z " fill="#818180" transform="translate(234,748)"/>
<path d="M0 0 C0.5775 0.226875 1.155 0.45375 1.75 0.6875 C0.86957031 1.42355469 -0.01085937 2.15960938 -0.91796875 2.91796875 C-2.09124844 3.90352369 -3.26441977 4.88920766 -4.4375 5.875 C-5.01564453 6.35775391 -5.59378906 6.84050781 -6.18945312 7.33789062 C-9.71610864 10.30665713 -13.00941511 13.40312342 -16.25 16.6875 C-17.50652533 17.80792201 -18.77542005 18.91481495 -20.0625 20 C-20.66707031 20.51175781 -21.27164063 21.02351563 -21.89453125 21.55078125 C-22.34183594 21.92589844 -22.78914062 22.30101562 -23.25 22.6875 C-21.75783805 14.25678498 -12.47828312 7.87965469 -6.25 2.6875 C-5.58355469 2.09582031 -4.91710937 1.50414062 -4.23046875 0.89453125 C-2.25 -0.3125 -2.25 -0.3125 0 0 Z " fill="#828282" transform="translate(206.25,301.3125)"/>
<path d="M0 0 C14.35003796 -0.19778 28.6643977 0.40845188 43 1 C43 1.33 43 1.66 43 2 C4.35435494 3.19388403 4.35435494 3.19388403 -14 3 C-14 2.67 -14 2.34 -14 2 C-9.38 2 -4.76 2 0 2 C0 1.34 0 0.68 0 0 Z " fill="#9C9C9A" transform="translate(384,303)"/>
<path d="M0 0 C0 0.33 0 0.66 0 1 C-15.68609933 2.85070817 -31.18471847 4.21931823 -47 4 C-47 3.67 -47 3.34 -47 3 C-46.14535156 2.93941406 -45.29070313 2.87882813 -44.41015625 2.81640625 C-43.30542969 2.73261719 -42.20070313 2.64882813 -41.0625 2.5625 C-39.96035156 2.48128906 -38.85820313 2.40007813 -37.72265625 2.31640625 C-35.08890097 2.29581916 -35.08890097 2.29581916 -34 1 C-22.79364945 -0.60942269 -11.2866325 -0.10404639 0 0 Z " fill="#727371" transform="translate(749,726)"/>
<path d="M0 0 C0.33 0 0.66 0 1 0 C1.25631351 14.48762835 0.7646888 28.61463508 -1 43 C-1.33 43 -1.66 43 -2 43 C-2 33.43 -2 23.86 -2 14 C-1.34 14 -0.68 14 0 14 C0 9.38 0 4.76 0 0 Z " fill="#727271" transform="translate(841,566)"/>
<path d="M0 0 C4.29 0 8.58 0 13 0 C13 0.33 13 0.66 13 1 C14.65 1 16.3 1 18 1 C18 0.67 18 0.34 18 0 C25.92 0.33 33.84 0.66 42 1 C42 1.33 42 1.66 42 2 C37.23545243 2.28941355 32.47064899 2.57402486 27.70556641 2.85449219 C26.08993084 2.9502288 24.47436787 3.04719999 22.85888672 3.14550781 C13.56249083 3.71032294 4.31910248 4.1651835 -5 4 C-5 3.67 -5 3.34 -5 3 C-2.03 3 0.94 3 4 3 C4 2.34 4 1.68 4 1 C2.68 0.67 1.36 0.34 0 0 Z " fill="#929291" transform="translate(323,305)"/>
<path d="M0 0 C0.66 0.33 1.32 0.66 2 1 C-2.02732196 5.4110755 -7.3926361 8.15211416 -12.4375 11.25 C-13.48744141 11.91257812 -14.53738281 12.57515625 -15.61914062 13.2578125 C-16.63041016 13.87914062 -17.64167969 14.50046875 -18.68359375 15.140625 C-19.60712646 15.71329102 -20.53065918 16.28595703 -21.48217773 16.87597656 C-24 18 -24 18 -26.33227539 17.67871094 C-26.88262451 17.45473633 -27.43297363 17.23076172 -28 17 C-24.33135817 14.72952521 -20.65663469 12.46928996 -16.97753906 10.21582031 C-14.93630652 8.96084031 -12.9018645 7.69526234 -10.8671875 6.4296875 C-9.51587838 5.59854623 -8.16432121 4.7678081 -6.8125 3.9375 C-6.16531006 3.53152588 -5.51812012 3.12555176 -4.85131836 2.70727539 C-3.2703906 1.74287364 -1.63861096 0.86276153 0 0 Z " fill="#7D7D7C" transform="translate(614,525)"/>
<path d="M0 0 C3.82122393 1.42114154 7.22622205 3.19189532 10.73828125 5.2578125 C11.80498047 5.88300781 12.87167969 6.50820313 13.97070312 7.15234375 C15.07349609 7.80332031 16.17628906 8.45429688 17.3125 9.125 C18.43462891 9.78371094 19.55675781 10.44242187 20.71289062 11.12109375 C23.47708656 12.7443237 26.23936632 14.37072154 29 16 C27.3503418 16.67871094 27.3503418 16.67871094 25 17 C22.35864258 15.87597656 22.35864258 15.87597656 19.39453125 14.140625 C18.32912109 13.51929688 17.26371094 12.89796875 16.16601562 12.2578125 C14.50602539 11.26394531 14.50602539 11.26394531 12.8125 10.25 C11.69423828 9.60289062 10.57597656 8.95578125 9.42382812 8.2890625 C1.13180272 3.39540816 1.13180272 3.39540816 0 0 Z " fill="#7C7D7B" transform="translate(530,492)"/>
<path d="M0 0 C-6.5297913 4.05478976 -13.075316 8.08077821 -19.6875 12 C-20.66074219 12.5775 -21.63398438 13.155 -22.63671875 13.75 C-25 15 -25 15 -27 15 C-26.67 14.01 -26.34 13.02 -26 12 C-25.34 12.33 -24.68 12.66 -24 13 C-24 12.34 -24 11.68 -24 11 C-20.93084847 8.67192597 -17.55317199 6.78939839 -14.25 4.8125 C-13.32960938 4.24080078 -12.40921875 3.66910156 -11.4609375 3.08007812 C-10.57148438 2.54447266 -9.68203125 2.00886719 -8.765625 1.45703125 C-7.94868164 0.96178955 -7.13173828 0.46654785 -6.29003906 -0.04370117 C-3.67238666 -1.13680826 -2.60411966 -0.99988932 0 0 Z " fill="#7D7D7D" transform="translate(469,580)"/>
<path d="M0 0 C8.45289578 3.44377236 15.26526653 13.42442644 20 21 C19.67 21.66 19.34 22.32 19 23 C15.17423953 19.4061038 12.02734692 15.52750244 8.84765625 11.35546875 C6.45039105 8.29933573 3.88716232 5.41347211 1.28515625 2.53125 C0 1 0 1 0 0 Z " fill="#807F7E" transform="translate(802,330)"/>
<path d="M0 0 C-1.23195289 3.69585868 -2.20489449 3.99449336 -5.515625 5.8828125 C-6.43730469 6.41003906 -7.35898437 6.93726563 -8.30859375 7.48046875 C-9.27925781 8.02316406 -10.24992188 8.56585937 -11.25 9.125 C-12.20519531 9.67542969 -13.16039062 10.22585938 -14.14453125 10.79296875 C-18.45865852 13.23504079 -22.05275989 15.2381206 -27 16 C-24.60372619 13.36385202 -22.02308875 11.67417495 -18.96484375 9.86328125 C-17.99095703 9.28642578 -17.01707031 8.70957031 -16.01367188 8.11523438 C-14.99853516 7.52033203 -13.98339844 6.92542969 -12.9375 6.3125 C-11.91849609 5.70599609 -10.89949219 5.09949219 -9.84960938 4.47460938 C-2.25435004 0 -2.25435004 0 0 0 Z " fill="#7C7D7C" transform="translate(528,577)"/>
<path d="M0 0 C5.82766367 0.46472597 9.91747695 2.9288054 14.8125 5.875 C15.97555664 6.54595703 15.97555664 6.54595703 17.16210938 7.23046875 C22.87259746 10.61779239 22.87259746 10.61779239 24 14 C19.38337721 12.73042873 15.85141915 10.77495633 11.9296875 8.12109375 C9.94424982 6.96761072 8.22035005 6.51886075 6 6 C4.4375 4.625 4.4375 4.625 3 3 C2.443125 2.443125 1.88625 1.88625 1.3125 1.3125 C0.879375 0.879375 0.44625 0.44625 0 0 Z " fill="#7D7E7E" transform="translate(490,435)"/>
<path d="M0 0 C0.33 0 0.66 0 1 0 C1.14410649 12.00887402 0.57615414 23.24473352 -2 35 C-2.33 35 -2.66 35 -3 35 C-3.60377168 23.14818557 -1.77481934 11.68580075 0 0 Z " fill="#727271" transform="translate(187,399)"/>
<path d="M0 0 C0 0.33 0 0.66 0 1 C-0.95712891 1.09087891 -0.95712891 1.09087891 -1.93359375 1.18359375 C-2.75988281 1.26738281 -3.58617187 1.35117187 -4.4375 1.4375 C-5.67306641 1.55931641 -5.67306641 1.55931641 -6.93359375 1.68359375 C-8.98662025 1.78930815 -8.98662025 1.78930815 -10 3 C-18.0961904 4.11415464 -25.91221266 4.05351939 -34 3 C-34 2.67 -34 2.34 -34 2 C-22.59408052 0.40117274 -11.51472518 -0.25940557 0 0 Z " fill="#777777" transform="translate(327,307)"/>
<path d="M0 0 C0 0.33 0 0.66 0 1 C4.29 1.33 8.58 1.66 13 2 C13 2.33 13 2.66 13 3 C-4.73382116 4.88801138 -4.73382116 4.88801138 -10.09765625 3.4296875 C-12.20573087 2.78109181 -12.20573087 2.78109181 -15 4 C-17.26171875 3.87890625 -17.26171875 3.87890625 -19.6875 3.5625 C-20.89986328 3.40974609 -20.89986328 3.40974609 -22.13671875 3.25390625 C-22.75160156 3.17011719 -23.36648438 3.08632813 -24 3 C-24 2.67 -24 2.34 -24 2 C-21.12543208 1.66252452 -18.25043941 1.32989537 -15.375 1 C-14.16263672 0.85691406 -14.16263672 0.85691406 -12.92578125 0.7109375 C-8.59026261 0.21746383 -4.37262689 -0.11320717 0 0 Z " fill="#959594" transform="translate(288,278)"/>
<path d="M0 0 C2.36286047 7.0885814 -2.59252088 14.94139562 -5.46484375 21.33984375 C-7 24 -7 24 -10 25 C-9.67 23.02 -9.34 21.04 -9 19 C-8.34 19 -7.68 19 -7 19 C-5.24265549 14.02638346 -3.67415387 9.2584002 -3 4 C-2.34 4 -1.68 4 -1 4 C-0.67 2.68 -0.34 1.36 0 0 Z " fill="#767676" transform="translate(858,675)"/>
<path d="M0 0 C-1.32 0.33 -2.64 0.66 -4 1 C-4 1.66 -4 2.32 -4 3 C-8.29027206 3.39228903 -12.58225081 3.76090295 -16.875 4.125 C-18.70998047 4.29322266 -18.70998047 4.29322266 -20.58203125 4.46484375 C-21.74863281 4.56152344 -22.91523437 4.65820312 -24.1171875 4.7578125 C-25.73536377 4.89920654 -25.73536377 4.89920654 -27.38623047 5.04345703 C-30 5 -30 5 -32 3 C-27.98000981 2.49306328 -23.95889046 1.9956961 -19.9375 1.5 C-18.80376953 1.35691406 -17.67003906 1.21382812 -16.50195312 1.06640625 C-10.96234446 0.38808682 -5.58198572 -0.19443782 0 0 Z " fill="#727271" transform="translate(767,753)"/>
<path d="M0 0 C6.27980195 0.46621702 10.87452667 1.98204649 16.4375 4.875 C17.15615234 5.22691406 17.87480469 5.57882812 18.61523438 5.94140625 C23.87038769 8.61116308 23.87038769 8.61116308 25 12 C21.66092519 10.71164901 18.4880839 9.27315429 15.3125 7.625 C10.3230326 5.09650299 5.22450402 2.98975792 0 1 C0 0.67 0 0.34 0 0 Z " fill="#828281" transform="translate(789,290)"/>
<path d="M0 0 C0.66 0.33 1.32 0.66 2 1 C-1.46862579 4.70476728 -5.64771411 7.09813236 -9.9375 9.75 C-10.74896484 10.26949219 -11.56042969 10.78898438 -12.39648438 11.32421875 C-13.18216797 11.81019531 -13.96785156 12.29617188 -14.77734375 12.796875 C-15.49140381 13.24385742 -16.20546387 13.69083984 -16.94116211 14.15136719 C-19.40924441 15.16868654 -20.53616089 14.90501304 -23 14 C-19.21629232 11.63285064 -15.42183289 9.28352885 -11.625 6.9375 C-10.54476562 6.26138672 -9.46453125 5.58527344 -8.3515625 4.88867188 C-7.3203125 4.25380859 -6.2890625 3.61894531 -5.2265625 2.96484375 C-4.27346191 2.3730835 -3.32036133 1.78132324 -2.33837891 1.17163086 C-1.56671387 0.78499268 -0.79504883 0.39835449 0 0 Z " fill="#7E7F7D" transform="translate(568,552)"/>
<path d="M0 0 C-3.56678538 2.53429488 -7.11868324 4.59588518 -11.0625 6.5 C-14.0778826 7.95788769 -16.30762108 9.24871492 -18.9375 11.375 C-19.618125 11.91125 -20.29875 12.4475 -21 13 C-21.99 12.67 -22.98 12.34 -24 12 C-5.24263039 -2.62131519 -5.24263039 -2.62131519 0 0 Z " fill="#7B7B7B" transform="translate(240,320)"/>
<path d="M0 0 C0.33 0 0.66 0 1 0 C1.15723924 10.04584053 0.67192387 19.9811352 0 30 C-0.33 30 -0.66 30 -1 30 C-1.33 26.04 -1.66 22.08 -2 18 C-2.33 18 -2.66 18 -3 18 C-3 13.38 -3 8.76 -3 4 C-2.34 5.32 -1.68 6.64 -1 8 C-0.67 5.36 -0.34 2.72 0 0 Z " fill="#9B9B9B" transform="translate(873,567)"/>
<path d="M0 0 C3.63 0 7.26 0 11 0 C11 0.33 11 0.66 11 1 C14.3 1.33 17.6 1.66 21 2 C21 2.33 21 2.66 21 3 C11.29056184 3.83779436 1.73944972 4.12276617 -8 4 C-8 3.67 -8 3.34 -8 3 C-3.545 2.505 -3.545 2.505 1 2 C0.67 1.34 0.34 0.68 0 0 Z " fill="#979796" transform="translate(695,758)"/>
<path d="M0 0 C5.04291542 0.57576593 8.9161276 2.91186389 13.25 5.375 C13.9821875 5.77460938 14.714375 6.17421875 15.46875 6.5859375 C16.51289062 7.17375 16.51289062 7.17375 17.578125 7.7734375 C18.21137695 8.12841309 18.84462891 8.48338867 19.49707031 8.84912109 C21 10 21 10 22 13 C17.3116564 11.3018598 13.08143144 8.93837777 8.75 6.5 C8.0178125 6.09652344 7.285625 5.69304687 6.53125 5.27734375 C5.83515625 4.88675781 5.1390625 4.49617188 4.421875 4.09375 C3.78862305 3.73990234 3.15537109 3.38605469 2.50292969 3.02148438 C1 2 1 2 0 0 Z " fill="#7A7B7A" transform="translate(523,454)"/>
<path d="M0 0 C4.97357688 1.7342733 9.31498953 4.43327957 13.8125 7.125 C14.60076172 7.59292969 15.38902344 8.06085938 16.20117188 8.54296875 C18.13602454 9.69215397 20.06887228 10.84457003 22 12 C19.60575952 12.85601884 18.41740135 13.15804864 16.0012207 12.24316406 C15.31632568 11.83807617 14.63143066 11.43298828 13.92578125 11.015625 C13.17619141 10.57476562 12.42660156 10.13390625 11.65429688 9.6796875 C10.88150391 9.20789063 10.10871094 8.73609375 9.3125 8.25 C8.52810547 7.79367187 7.74371094 7.33734375 6.93554688 6.8671875 C1.1320394 3.39611821 1.1320394 3.39611821 0 0 Z " fill="#7F7F7E" transform="translate(455,448)"/>
<path d="M0 0 C0.33 0 0.66 0 1 0 C3.38297872 19.34042553 3.38297872 19.34042553 3 29 C2.67 29 2.34 29 2 29 C-0.20971003 22.79715256 -0.23565619 17.10398302 -0.125 10.5625 C-0.11597656 9.54478516 -0.10695312 8.52707031 -0.09765625 7.47851562 C-0.07424698 4.98542844 -0.041457 2.49284141 0 0 Z " fill="#6F6F6E" transform="translate(153,602)"/>
<path d="M0 0 C0 0.33 0 0.66 0 1 C-2.64 1.33 -5.28 1.66 -8 2 C-8 2.33 -8 2.66 -8 3 C-20.87 2.505 -20.87 2.505 -34 2 C-34 1.67 -34 1.34 -34 1 C-22.64732258 0.20431798 -11.37981825 -0.12818318 0 0 Z " fill="#9B9B9A" transform="translate(352,274)"/>
<path d="M0 0 C0.91644287 0.00523682 1.83288574 0.01047363 2.77709961 0.01586914 C3.76645508 0.0190918 4.75581055 0.02231445 5.77514648 0.02563477 C6.81606445 0.03401367 7.85698242 0.04239258 8.92944336 0.05102539 C10.49662109 0.05779297 10.49662109 0.05779297 12.09545898 0.06469727 C14.68600996 0.07652627 17.27644895 0.0930085 19.86694336 0.11352539 C19.86694336 0.44352539 19.86694336 0.77352539 19.86694336 1.11352539 C-1.66497153 3.49650411 -1.66497153 3.49650411 -12.13305664 3.11352539 C-12.13305664 2.78352539 -12.13305664 2.45352539 -12.13305664 2.11352539 C-11.17592773 2.02264648 -11.17592773 2.02264648 -10.19946289 1.92993164 C-8.9600293 1.80424805 -8.9600293 1.80424805 -7.69555664 1.67602539 C-6.8718457 1.59481445 -6.04813477 1.51360352 -5.19946289 1.42993164 C-2.76494417 1.05716034 -2.48266432 0.13213219 0 0 Z " fill="#929391" transform="translate(729.133056640625,756.886474609375)"/>
<path d="M0 0 C3.12278617 2.87892435 5.1734254 5.70447227 7.1875 9.4375 C7.69667969 10.36433594 8.20585937 11.29117188 8.73046875 12.24609375 C9.94090419 14.87180755 10.57110862 17.15278134 11 20 C7.35785992 16.79298285 5.3226043 13.18921926 3.25 8.875 C2.77626953 7.92560547 2.77626953 7.92560547 2.29296875 6.95703125 C0 2.28175731 0 2.28175731 0 0 Z " fill="#767674" transform="translate(198,676)"/>
<path d="M0 0 C0.33 0 0.66 0 1 0 C3.641513 8.91510638 3.17875809 17.79395814 3 27 C2.67 27 2.34 27 2 27 C0.60950893 17.91214765 -0.30892527 9.21627045 0 0 Z " fill="#6D6E6C" transform="translate(184,601)"/>
<path d="M0 0 C10.06394247 -0.1176305 19.96557967 0.12198822 30 1 C30 1.33 30 1.66 30 2 C19.11 2.495 19.11 2.495 8 3 C8 2.67 8 2.34 8 2 C5.36 1.67 2.72 1.34 0 1 C0 0.67 0 0.34 0 0 Z " fill="#9A9A99" transform="translate(677,274)"/>
<path d="M0 0 C-1.20369692 3.61109076 -2.53482939 4.09173559 -5.8203125 5.75195312 C-6.45710937 6.06068359 -7.09390625 6.36941406 -7.75 6.6875 C-8.37132812 7.00783203 -8.99265625 7.32816406 -9.6328125 7.65820312 C-13.22530227 9.43550028 -15.98396001 10.40620252 -20 10 C-16.57544124 7.20356382 -12.81870229 5.25995711 -8.875 3.3125 C-8.24207031 2.99216797 -7.60914063 2.67183594 -6.95703125 2.34179688 C-2.25346482 0 -2.25346482 0 0 0 Z " fill="#767675" transform="translate(814,736)"/>
<path d="M0 0 C0.33 0 0.66 0 1 0 C1.02722517 2.20826378 1.04649729 4.41662638 1.0625 6.625 C1.07410156 7.85476563 1.08570313 9.08453125 1.09765625 10.3515625 C1.00863924 13.67723791 0.63686087 16.74047588 0 20 C-0.66 20 -1.32 20 -2 20 C-2.33 20.99 -2.66 21.98 -3 23 C-2.41993763 15.24548194 -1.37559416 7.65257723 0 0 Z " fill="#717170" transform="translate(866,635)"/>
<path d="M0 0 C4.22245061 2.16966753 6.34738369 4.43996091 8.875 8.4375 C9.49117187 9.38496094 10.10734375 10.33242188 10.7421875 11.30859375 C12.15061479 14.32227824 11.95556215 14.97485956 11 18 C9.34990683 15.56528902 7.70481602 13.12744835 6.0625 10.6875 C5.35963867 9.65206055 5.35963867 9.65206055 4.64257812 8.59570312 C4.19462891 7.92861328 3.74667969 7.26152344 3.28515625 6.57421875 C2.87144775 5.96151123 2.45773926 5.34880371 2.03149414 4.7175293 C1 3 1 3 0 0 Z " fill="#797A79" transform="translate(840,325)"/>
<path d="M0 0 C0 0.33 0 0.66 0 1 C2.97 1.495 2.97 1.495 6 2 C6 2.33 6 2.66 6 3 C-4.71092709 3.15498126 -15.31485445 2.67842194 -26 2 C-26 1.67 -26 1.34 -26 1 C-23.16681141 0.83049299 -20.33349012 0.66432466 -17.5 0.5 C-16.70851563 0.45230469 -15.91703125 0.40460938 -15.1015625 0.35546875 C-10.057819 0.06607363 -5.05202732 -0.04634887 0 0 Z " fill="#9E9E9D" transform="translate(693,305)"/>
<path d="M0 0 C-3.39335841 2.26223894 -6.02477632 2.83862411 -10 3.6875 C-11.85625 4.09548828 -11.85625 4.09548828 -13.75 4.51171875 C-17 5 -17 5 -20 4 C-19 2 -19 2 -15.625 0.875 C-10.44216077 -0.33118804 -5.28995413 -0.17503525 0 0 Z " fill="#797978" transform="translate(259,283)"/>
<path d="M0 0 C7.3905476 -0.14715692 14.64424835 0.29223008 22 1 C22 1.33 22 1.66 22 2 C19.69 2.33 17.38 2.66 15 3 C15 3.33 15 3.66 15 4 C4.27475338 4.56229448 4.27475338 4.56229448 0 1 C0 0.67 0 0.34 0 0 Z " fill="#989998" transform="translate(712,276)"/>
<path d="M0 0 C0 0.99 0 1.98 0 3 C-7.72772107 3.13690844 -15.30881404 2.75166913 -23 2 C-23 1.67 -23 1.34 -23 1 C-15.30881404 0.24833087 -7.72772107 -0.13690844 0 0 Z " fill="#848584" transform="translate(471,270)"/>
<path d="M0 0 C0.556875 0.7425 1.11375 1.485 1.6875 2.25 C6.00189383 7.3806305 9.60583546 9.4954907 16 11 C16 11.33 16 11.66 16 12 C11.85925371 12.51759329 9.32345418 12.79138983 5.6875 10.6171875 C3.51295791 8.82319028 1.66067015 7.28342146 0 5 C-0.21875 2.26171875 -0.21875 2.26171875 0 0 Z " fill="#797978" transform="translate(412,622)"/>
<path d="M0 0 C3.89839291 5.84758937 4.29973431 13.10611082 4 20 C-1.05265568 14.28830228 -0.12792594 7.1922806 0 0 Z " fill="#787876" transform="translate(833,384)"/>
<path d="M0 0 C1 2 1 2 0.07421875 4.828125 C-0.61220703 6.52195312 -0.61220703 6.52195312 -1.3125 8.25 C-3.00842317 12.46794072 -4.60350319 16.67282678 -6 21 C-7.85022724 15.44931828 -5.65396326 9.2454809 -3.5 3.9375 C-2 1 -2 1 0 0 Z " fill="#777776" transform="translate(170,343)"/>
<path d="M0 0 C0.33 0 0.66 0 1 0 C0.55197406 6.6740416 -0.04680381 14.04680381 -5 19 C-4.40984815 13.49191603 -3.43336231 8.35121931 -2 3 C-1.34 3 -0.68 3 0 3 C0 2.01 0 1.02 0 0 Z " fill="#848483" transform="translate(864,655)"/>
<path d="M0 0 C2 1 2 1 3.10546875 3.80078125 C3.64107422 5.53908203 3.64107422 5.53908203 4.1875 7.3125 C4.55230469 8.46363281 4.91710937 9.61476563 5.29296875 10.80078125 C5.95478247 13.79539693 6.08640853 15.19748119 5 18 C5 17.34 5 16.68 5 16 C4.34 16 3.68 16 3 16 C2.49193553 14.27318563 1.99389533 12.54342021 1.5 10.8125 C1.08234375 9.36810547 1.08234375 9.36810547 0.65625 7.89453125 C0.03322392 5.14654124 -0.12302812 2.80401584 0 0 Z " fill="#787978" transform="translate(827,365)"/>
<path d="M0 0 C-4.29 3.63 -8.58 7.26 -13 11 C-13.66 10.67 -14.32 10.34 -15 10 C-13.92173635 8.72486237 -12.83714481 7.45507431 -11.75 6.1875 C-11.14671875 5.47980469 -10.5434375 4.77210938 -9.921875 4.04296875 C-4.95356037 -1.23839009 -4.95356037 -1.23839009 0 0 Z " fill="#7A7B7A" transform="translate(208,302)"/>
<path d="M0 0 C2.68310721 5.18734061 3.12814248 9.40591252 3.0625 15.1875 C3.05798828 15.93708984 3.05347656 16.68667969 3.04882812 17.45898438 C3.03706354 19.30602383 3.01912865 21.15302213 3 23 C2.67 23 2.34 23 2 23 C0.76892281 15.27279225 -0.2700558 7.8316181 0 0 Z " fill="#6A6968" transform="translate(866,393)"/>
<path d="M0 0 C7.92 0.33 15.84 0.66 24 1 C24 1.33 24 1.66 24 2 C14.43 2.33 4.86 2.66 -5 3 C-5 2.67 -5 2.34 -5 2 C-3.35 1.67 -1.7 1.34 0 1 C0 0.67 0 0.34 0 0 Z " fill="#9D9D9D" transform="translate(341,305)"/>
<path d="M0 0 C0.33 0.66 0.66 1.32 1 2 C-0.36328125 4.56640625 -0.36328125 4.56640625 -2.3125 7.5625 C-3.26576172 9.04943359 -3.26576172 9.04943359 -4.23828125 10.56640625 C-6 13 -6 13 -8 14 C-7.52585143 8.9424153 -4.99249402 4.98999203 -2 1 C-1.34 0.67 -0.68 0.34 0 0 Z " fill="#7C7C7B" transform="translate(821,684)"/>
<path d="M0 0 C3.42946293 1.61674681 6.56263052 3.57597677 9.75 5.625 C11.22726563 6.57246094 11.22726563 6.57246094 12.734375 7.5390625 C13.48203125 8.02117188 14.2296875 8.50328125 15 9 C13.2890625 9.66796875 13.2890625 9.66796875 11 10 C8.7109375 8.92578125 8.7109375 8.92578125 6.375 7.3125 C5.59898437 6.79300781 4.82296875 6.27351562 4.0234375 5.73828125 C1.9332617 3.9426669 1.02523435 2.53001379 0 0 Z " fill="#797978" transform="translate(200,730)"/>
<path d="M0 0 C1.72274487 2.58411731 2.68895522 4.54902656 3.6875 7.4375 C3.95949219 8.19933594 4.23148438 8.96117187 4.51171875 9.74609375 C5.04729142 12.21829721 4.80445309 13.62983284 4 16 C4 15.34 4 14.68 4 14 C3.34 14 2.68 14 2 14 C0.02905192 9.07262981 -0.1799928 5.21979128 0 0 Z " fill="#7A7A79" transform="translate(162,667)"/>
<path d="M0 0 C0.33 0 0.66 0 1 0 C1.33 1.65 1.66 3.3 2 5 C2.33 5 2.66 5 3 5 C3 7.97 3 10.94 3 14 C1.68 14.33 0.36 14.66 -1 15 C-0.67 10.05 -0.34 5.1 0 0 Z " fill="#949494" transform="translate(155,393)"/>
<path d="M0 0 C2.04190981 0.14238837 4.08352045 0.28907028 6.125 0.4375 C7.83042969 0.55931641 7.83042969 0.55931641 9.5703125 0.68359375 C12.7540478 0.97730965 15.85510907 1.43124313 19 2 C19 2.33 19 2.66 19 3 C16.58265458 3.08117951 14.16805051 3.14056926 11.75 3.1875 C11.06808594 3.21263672 10.38617188 3.23777344 9.68359375 3.26367188 C6.40800711 3.31137459 4.34651444 3.21085076 1.515625 1.48828125 C1.01546875 0.99714844 0.5153125 0.50601563 0 0 Z " fill="#70706F" transform="translate(256,753)"/>
<path d="M0 0 C0.99 0.495 0.99 0.495 2 1 C3.2062252 4.61867559 3.10816918 7.92506251 3.0625 11.6875 C3.05798828 12.38939453 3.05347656 13.09128906 3.04882812 13.81445312 C3.03706927 15.54300538 3.01913454 17.27151365 3 19 C2.67 19 2.34 19 2 19 C1.67 16.36 1.34 13.72 1 11 C0.67 11 0.34 11 0 11 C0 7.37 0 3.74 0 0 Z " fill="#929292" transform="translate(869,590)"/>
<path d="M0 0 C0.33 0 0.66 0 1 0 C1.16677223 8.04212755 0.6466598 15.98603754 0 24 C-0.33 24 -0.66 24 -1 24 C-1.22644569 20.75099666 -1.42797517 17.50090961 -1.625 14.25 C-1.68945312 13.32960938 -1.75390625 12.40921875 -1.8203125 11.4609375 C-1.871875 10.57148438 -1.9234375 9.68203125 -1.9765625 8.765625 C-2.02893066 7.94868164 -2.08129883 7.13173828 -2.13525391 6.29003906 C-1.98414765 3.73159732 -1.28926961 2.19131832 0 0 Z " fill="#9D9D9D" transform="translate(185,426)"/>
<path d="M0 0 C4.95 0.33 9.9 0.66 15 1 C13 3 13 3 10.93701172 3.22705078 C9.69588623 3.21134033 9.69588623 3.21134033 8.4296875 3.1953125 C7.53378906 3.18886719 6.63789063 3.18242187 5.71484375 3.17578125 C4.77769531 3.15902344 3.84054687 3.14226562 2.875 3.125 C1.93011719 3.11597656 0.98523438 3.10695313 0.01171875 3.09765625 C-2.32577292 3.07404522 -4.66276123 3.04111516 -7 3 C-7 2.67 -7 2.34 -7 2 C-4.69 2 -2.38 2 0 2 C0 1.34 0 0.68 0 0 Z " fill="#969695" transform="translate(288,309)"/>
<path d="M0 0 C3.9252025 3.70090521 6.94580156 7.54959656 10 12 C7.35107221 11.61993645 6.19467845 11.19914355 4.296875 9.2578125 C3.78640625 8.55398438 3.2759375 7.85015625 2.75 7.125 C2.22921875 6.42632813 1.7084375 5.72765625 1.171875 5.0078125 C0 3 0 3 0 0 Z " fill="#7D7C7B" transform="translate(181,710)"/>
<path d="M0 0 C4.08963819 2.28538605 7.46362104 4.95706926 11 8 C10.67 8.99 10.34 9.98 10 11 C8.32742645 9.5484451 6.66208242 8.08855591 5 6.625 C3.6078125 5.40683594 3.6078125 5.40683594 2.1875 4.1640625 C1.465625 3.44992187 0.74375 2.73578125 0 2 C0 1.34 0 0.68 0 0 Z " fill="#777776" transform="translate(211,698)"/>
<path d="M0 0 C-1.78524649 1.19713017 -3.5784028 2.38247279 -5.375 3.5625 C-6.87160156 4.55443359 -6.87160156 4.55443359 -8.3984375 5.56640625 C-9.25695312 6.03949219 -10.11546875 6.51257813 -11 7 C-11.66 6.67 -12.32 6.34 -13 6 C-5.74729569 -1.78994167 -5.74729569 -1.78994167 0 0 Z " fill="#7C7C7B" transform="translate(560,526)"/>
<path d="M0 0 C0.33 0.66 0.66 1.32 1 2 C1.66 2 2.32 2 3 2 C3.93619813 5.15506142 4.1057123 7.96586502 4.0625 11.25 C4.05347656 12.14203125 4.04445313 13.0340625 4.03515625 13.953125 C4.02355469 14.62859375 4.01195312 15.3040625 4 16 C2.60025314 13.36518239 1.58775959 10.89629292 0.875 8 C0.70742188 7.34 0.53984375 6.68 0.3671875 6 C0 4 0 4 0 0 Z " fill="#737372" transform="translate(860,365)"/>
<path d="M0 0 C5.79355528 1.32768975 10.0999919 3.66544904 15 7 C13.32421875 7.67578125 13.32421875 7.67578125 11 8 C8.45703125 6.85546875 8.45703125 6.85546875 5.8125 5.1875 C4.93207031 4.64480469 4.05164063 4.10210937 3.14453125 3.54296875 C1 2 1 2 0 0 Z " fill="#7A7A79" transform="translate(784,320)"/>
<path d="M0 0 C5.852795 0.51482919 11.3297637 1.45357192 17 3 C17 3.33 17 3.66 17 4 C10.66606918 4.34548714 5.89738492 3.29342747 0 1 C0 0.67 0 0.34 0 0 Z " fill="#767675" transform="translate(754,312)"/>
<path d="M0 0 C0.33 0 0.66 0 1 0 C1.38854209 2.28940956 1.7604628 4.58164574 2.125 6.875 C2.33382812 8.15117188 2.54265625 9.42734375 2.7578125 10.7421875 C2.83773437 11.81726563 2.91765625 12.89234375 3 14 C2.34 14.66 1.68 15.32 1 16 C0 15 0 15 -0.09765625 11.62109375 C-0.09098369 10.22652923 -0.07902532 8.83198257 -0.0625 7.4375 C-0.05798828 6.72658203 -0.05347656 6.01566406 -0.04882812 5.28320312 C-0.03700864 3.52209987 -0.01907263 1.76103964 0 0 Z " fill="#727271" transform="translate(156,632)"/>
<path d="M0 0 C-1.78524649 1.19713017 -3.5784028 2.38247279 -5.375 3.5625 C-6.87160156 4.55443359 -6.87160156 4.55443359 -8.3984375 5.56640625 C-9.25695312 6.03949219 -10.11546875 6.51257813 -11 7 C-11.66 6.67 -12.32 6.34 -13 6 C-5.74729569 -1.78994167 -5.74729569 -1.78994167 0 0 Z " fill="#797978" transform="translate(543,536)"/>
<path d="M0 0 C0.33 0.66 0.66 1.32 1 2 C0.328125 3.91015625 0.328125 3.91015625 -0.75 6.0625 C-1.09546875 6.77535156 -1.4409375 7.48820313 -1.796875 8.22265625 C-3 10 -3 10 -6 11 C-5.67 9.02 -5.34 7.04 -5 5 C-4.34 5 -3.68 5 -3 5 C-2.87625 4.360625 -2.7525 3.72125 -2.625 3.0625 C-2.41875 2.381875 -2.2125 1.70125 -2 1 C-1.34 0.67 -0.68 0.34 0 0 Z " fill="#80807F" transform="translate(854,689)"/>
<path d="M0 0 C3.69546741 0.49938749 5.69961604 1.00415112 8 4 C8.29296875 6.26171875 8.29296875 6.26171875 8.1875 8.6875 C8.16042969 9.49574219 8.13335938 10.30398438 8.10546875 11.13671875 C8.07066406 11.75160156 8.03585937 12.36648438 8 13 C7.67 13 7.34 13 7 13 C6.6596875 11.1746875 6.6596875 11.1746875 6.3125 9.3125 C5.27390304 5.04439716 3.384032 2.84971116 0 0 Z " fill="#727372" transform="translate(613,506)"/>
<path d="M0 0 C4.72867022 0.46359512 8.18142796 1.0799155 12 4 C12.33 4.99 12.66 5.98 13 7 C8.50202887 5.31326082 4.27113698 3.18326108 0 1 C0 0.67 0 0.34 0 0 Z " fill="#797A78" transform="translate(429,400)"/>
<path d="M0 0 C1.91595968 -0.08133791 3.83291932 -0.13934367 5.75 -0.1875 C7.35101562 -0.23970703 7.35101562 -0.23970703 8.984375 -0.29296875 C12.30027855 0.02917214 13.59016673 0.77148914 16 3 C14.08268082 2.88544319 12.1661325 2.75793742 10.25 2.625 C9.18265625 2.55539062 8.1153125 2.48578125 7.015625 2.4140625 C4.19793568 2.0271777 2.4169634 1.44313834 0 0 Z " fill="#727270" transform="translate(755,282)"/>
<path d="M0 0 C0 0.66 0 1.32 0 2 C-1.609375 3.32421875 -1.609375 3.32421875 -3.75 4.6875 C-4.44609375 5.14511719 -5.1421875 5.60273437 -5.859375 6.07421875 C-8.39090725 7.16906025 -9.46100862 6.9435441 -12 6 C-10.37829621 4.99466333 -8.75252763 3.99588093 -7.125 3 C-5.76761719 2.1646875 -5.76761719 2.1646875 -4.3828125 1.3125 C-2 0 -2 0 0 0 Z " fill="#7C7C7B" transform="translate(584,544)"/>
<path d="M0 0 C4.36109605 0.50710419 7.45075299 1.36341651 11 4 C11.33 4.99 11.66 5.98 12 7 C7.69235185 5.43358249 3.93828536 3.31663844 0 1 C0 0.67 0 0.34 0 0 Z " fill="#7B7B7A" transform="translate(444,408)"/>
<path d="M0 0 C-4.17318933 2.78212622 -8.06975779 4.15481562 -13 5 C-8.7797731 -0.27528362 -6.38501231 -0.54110274 0 0 Z " fill="#81807F" transform="translate(428,399)"/>
<path d="M0 0 C1.32 0.33 2.64 0.66 4 1 C1.36 2.98 -1.28 4.96 -4 7 C-4.66 6.67 -5.32 6.34 -6 6 C-4 4 -2 2 0 0 Z " fill="#7A7A79" transform="translate(802,705)"/>
<path d="M0 0 C4.30764815 1.56641751 8.06171464 3.68336156 12 6 C10.4375 6.75 10.4375 6.75 8 7 C5.45280141 5.97667131 3.13666413 4.72727704 1 3 C0.67 2.01 0.34 1.02 0 0 Z " fill="#777877" transform="translate(455,448)"/>
<path d="M0 0 C3.94876098 0.56410871 6.75634176 1.65735794 10 4 C10.33 4.99 10.66 5.98 11 7 C6.89188572 5.55007731 3.53144334 3.54592427 0 1 C0 0.67 0 0.34 0 0 Z " fill="#797978" transform="translate(470,423)"/>
<path d="M0 0 C5.28 0.33 10.56 0.66 16 1 C16 1.33 16 1.66 16 2 C11.38 2.33 6.76 2.66 2 3 C2 2.34 2 1.68 2 1 C1.34 0.67 0.68 0.34 0 0 Z " fill="#969694" transform="translate(272,724)"/>
<path d="M0 0 C1.81248985 3.6249797 2.31888915 5.37259584 2.625 9.25 C2.69976562 10.14203125 2.77453125 11.0340625 2.8515625 11.953125 C2.92503906 12.96632813 2.92503906 12.96632813 3 14 C2.67 13.01 2.34 12.02 2 11 C1.34 11 0.68 11 0 11 C0 7.37 0 3.74 0 0 Z " fill="#70706F" transform="translate(159,652)"/>
<path d="M0 0 C0.33 0 0.66 0 1 0 C1.82810601 6.81508864 2.50413785 12.51870203 0 19 C-0.33 19 -0.66 19 -1 19 C-0.67 12.73 -0.34 6.46 0 0 Z " fill="#9B9B9A" transform="translate(153,410)"/>
<path d="M0 0 C0.33 0 0.66 0 1 0 C0.67 3.3 0.34 6.6 0 10 C-0.66 10 -1.32 10 -2 10 C-2.33 10.66 -2.66 11.32 -3 12 C-2.49202991 7.6822542 -1.80317221 3.96697886 0 0 Z " fill="#777674" transform="translate(196,362)"/>
<path d="M0 0 C3.31562557 0.55260426 6.15062207 1.16825705 9 3 C9.33 3.99 9.66 4.98 10 6 C5.56909529 4.79157144 3.01887244 3.48331435 0 0 Z " fill="#747574" transform="translate(224,710)"/>
<path d="M0 0 C2.61500768 2.36595933 4.38999603 4.86049226 6 8 C5.67 8.66 5.34 9.32 5 10 C1.32769295 6.92000054 0.43197635 4.7517398 0 0 Z " fill="#777776" transform="translate(172,695)"/>
<path d="M0 0 C-1 3 -1 3 -3.875 4.75 C-7 6 -7 6 -10 5 C-8.71186658 4.16121545 -7.41936744 3.32913217 -6.125 2.5 C-5.40570312 2.0359375 -4.68640625 1.571875 -3.9453125 1.09375 C-2 0 -2 0 0 0 Z " fill="#7B7C7B" transform="translate(540,570)"/>
<path d="M0 0 C4.7517398 0.43197635 6.92000054 1.32769295 10 5 C9.01 5.495 9.01 5.495 8 6 C6.0546875 5.0390625 6.0546875 5.0390625 3.875 3.625 C3.15054688 3.16351563 2.42609375 2.70203125 1.6796875 2.2265625 C1.12539063 1.82179688 0.57109375 1.41703125 0 1 C0 0.67 0 0.34 0 0 Z " fill="#777878" transform="translate(566,479)"/>
<path d="M0 0 C0.66 0.33 1.32 0.66 2 1 C-1.01887244 4.48331435 -3.56909529 5.79157144 -8 7 C-8 6.34 -8 5.68 -8 5 C-6.3203125 3.67578125 -6.3203125 3.67578125 -4.125 2.3125 C-3.40570313 1.85488281 -2.68640625 1.39726563 -1.9453125 0.92578125 C-1.30335938 0.62027344 -0.66140625 0.31476562 0 0 Z " fill="#787876" transform="translate(483,602)"/>
<path d="M0 0 C-1 3 -1 3 -3.875 4.75 C-7 6 -7 6 -10 5 C-8.71186658 4.16121545 -7.41936744 3.32913217 -6.125 2.5 C-5.40570313 2.0359375 -4.68640625 1.571875 -3.9453125 1.09375 C-2 0 -2 0 0 0 Z " fill="#797978" transform="translate(499,594)"/>
<path d="M0 0 C-1.28524261 0.86380259 -2.57842419 1.71580369 -3.875 2.5625 C-4.59429688 3.03816406 -5.31359375 3.51382813 -6.0546875 4.00390625 C-6.69664062 4.33261719 -7.33859375 4.66132812 -8 5 C-8.66 4.67 -9.32 4.34 -10 4 C-4.75 -1.425 -4.75 -1.425 0 0 Z " fill="#797A79" transform="translate(525,547)"/>
<path d="M0 0 C2.61047801 1.305239 2.68066423 2.35826574 3.625 5.0625 C3.88539063 5.79597656 4.14578125 6.52945313 4.4140625 7.28515625 C4.60742188 7.85105469 4.80078125 8.41695312 5 9 C4.01 9 3.02 9 2 9 C0.50178941 5.62902617 0 3.79557881 0 0 Z " fill="#7A7978" transform="translate(167,684)"/>
<path d="M0 0 C0.66 0.33 1.32 0.66 2 1 C0.06745228 3.0245738 -1.63158688 4.42105792 -4 6 C-6.1875 5.625 -6.1875 5.625 -8 5 C-6.71475739 4.13619741 -5.42157581 3.28419631 -4.125 2.4375 C-3.04605469 1.72400391 -3.04605469 1.72400391 -1.9453125 0.99609375 C-1.30335938 0.66738281 -0.66140625 0.33867188 0 0 Z " fill="#757574" transform="translate(463,614)"/>
<path d="M0 0 C3.59391114 1.33488128 6.75490696 2.96022723 10 5 C8.3125 5.6875 8.3125 5.6875 6 6 C3.3125 4.75 3.3125 4.75 1 3 C0.67 2.01 0.34 1.02 0 0 Z " fill="#717271" transform="translate(501,475)"/>
<path d="M0 0 C0.6875 1.6875 0.6875 1.6875 1 4 C-0.3125 6.75 -0.3125 6.75 -2 9 C-2.66 9 -3.32 9 -4 9 C-3.35455571 5.51460083 -1.89865603 2.97180943 0 0 Z " fill="#7A7979" transform="translate(204,346)"/>
<path d="M0 0 C1.46015291 0.28241641 2.91809793 0.57626614 4.375 0.875 C5.18710937 1.03742188 5.99921875 1.19984375 6.8359375 1.3671875 C9 2 9 2 11 4 C8.03 3.67 5.06 3.34 2 3 C2 2.34 2 1.68 2 1 C1.34 0.67 0.68 0.34 0 0 Z " fill="#797977" transform="translate(772,316)"/>
<path d="M0 0 C-1 3 -1 3 -3.4375 4.75 C-4.7059375 5.36875 -4.7059375 5.36875 -6 6 C-6.66 5.67 -7.32 5.34 -8 5 C-3.16129032 0 -3.16129032 0 0 0 Z " fill="#818080" transform="translate(814,736)"/>
<path d="M0 0 C0.6875 1.625 0.6875 1.625 1 4 C-0.4375 7.25 -0.4375 7.25 -2 10 C-2.98120464 6.94736336 -2.98120464 5.05263664 -2 2 C-1.34 2 -0.68 2 0 2 C0 1.34 0 0.68 0 0 Z " fill="#7E7E7E" transform="translate(862,664)"/>
<path d="M0 0 C1.48828125 1.26953125 1.48828125 1.26953125 3 3 C3.1875 6.6875 3.1875 6.6875 3 10 C2.34 9.67 1.68 9.34 1 9 C0.5859375 6.93359375 0.5859375 6.93359375 0.375 4.4375 C0.30023438 3.61121094 0.22546875 2.78492188 0.1484375 1.93359375 C0.09945312 1.29550781 0.05046875 0.65742187 0 0 Z " fill="#71716F" transform="translate(192,656)"/>
<path d="M0 0 C0.66 0.33 1.32 0.66 2 1 C0.06745228 3.0245738 -1.63158688 4.42105792 -4 6 C-6.1875 5.625 -6.1875 5.625 -8 5 C-6.71475739 4.13619741 -5.42157581 3.28419631 -4.125 2.4375 C-3.04605469 1.72400391 -3.04605469 1.72400391 -1.9453125 0.99609375 C-1.30335938 0.66738281 -0.66140625 0.33867188 0 0 Z " fill="#767675" transform="translate(568,552)"/>
<path d="M0 0 C0.33 1.32 0.66 2.64 1 4 C-0.4375 6.25 -0.4375 6.25 -2 8 C-2.99 7.67 -3.98 7.34 -5 7 C-3.35 4.69 -1.7 2.38 0 0 Z " fill="#797978" transform="translate(844,705)"/>
<path d="M0 0 C2.25 0.25 2.25 0.25 4 1 C2.02 2.32 0.04 3.64 -2 5 C-2.66 4.67 -3.32 4.34 -4 4 C-2.25 1.9375 -2.25 1.9375 0 0 Z " fill="#7A7A79" transform="translate(214,295)"/>
<path d="M0 0 C2.64 0.33 5.28 0.66 8 1 C8 1.66 8 2.32 8 3 C8.66 3.33 9.32 3.66 10 4 C5.78087253 3.5205537 3.20336822 2.83374881 0 0 Z " fill="#777776" transform="translate(789,290)"/>
<path d="M0 0 C1.9375 0.625 1.9375 0.625 4 2 C4.75 5.125 4.75 5.125 5 8 C2.20127563 5.47211993 0.54226981 3.79588866 0 0 Z " fill="#868584" transform="translate(176,704)"/>
<path d="M0 0 C0.556875 0.226875 1.11375 0.45375 1.6875 0.6875 C-2.74326923 3.76442308 -2.74326923 3.76442308 -5.625 3.375 C-6.4603125 3.0346875 -6.4603125 3.0346875 -7.3125 2.6875 C-2.88173077 -0.38942308 -2.88173077 -0.38942308 0 0 Z " fill="#808281" transform="translate(508.3125,555.3125)"/>
<path d="M0 0 C0.33 0.99 0.66 1.98 1 3 C1.66 3.33 2.32 3.66 3 4 C1.68 4.99 0.36 5.98 -1 7 C-1.66 6.67 -2.32 6.34 -3 6 C-3 3 -3 3 -1.5 1.3125 C-0.7575 0.6628125 -0.7575 0.6628125 0 0 Z " fill="#919292" transform="translate(569,516)"/>
<path d="M0 0 C0.33 0.66 0.66 1.32 1 2 C-0.98 4.97 -0.98 4.97 -3 8 C-3.75 6.25 -3.75 6.25 -4 4 C-2.0625 1.75 -2.0625 1.75 0 0 Z " fill="#777877" transform="translate(175,334)"/>
<path d="M0 0 C0.66 0.66 1.32 1.32 2 2 C1.34 2 0.68 2 0 2 C0 1.34 0 0.68 0 0 Z " fill="#91908F" transform="translate(209,740)"/>
<path d="M0 0 C3 1 3 1 3 1 Z " fill="#969794" transform="translate(669,728)"/>
<path d="M0 0 C3 1 3 1 3 1 Z " fill="#919190" transform="translate(761,720)"/>
<path d="" fill="#929190" transform="translate(0,0)"/>
<path d="" fill="#8F8E8D" transform="translate(0,0)"/>
<path d="" fill="#939393" transform="translate(0,0)"/>
<path d="M0 0 C0.33 0.66 0.66 1.32 1 2 C0.34 1.67 -0.32 1.34 -1 1 C-0.67 0.67 -0.34 0.34 0 0 Z " fill="#949391" transform="translate(241,282)"/>
<path d="M0 0 C2 1 2 1 2 1 Z " fill="#939290" transform="translate(608,766)"/>
<path d="M0 0 C2 1 2 1 2 1 Z " fill="#939392" transform="translate(435,766)"/>
<path d="M0 0 C2 1 2 1 2 1 Z " fill="#939290" transform="translate(480,731)"/>
<path d="M0 0 C2 1 2 1 2 1 Z " fill="#989B97" transform="translate(664,728)"/>
<path d="" fill="#908F8E" transform="translate(0,0)"/>
<path d="" fill="#959494" transform="translate(0,0)"/>
<path d="" fill="#939392" transform="translate(0,0)"/>
<path d="" fill="#929493" transform="translate(0,0)"/>
<path d="M0 0 C2 1 2 1 2 1 Z " fill="#939392" transform="translate(480,568)"/>
<path d="" fill="#8F8E8D" transform="translate(0,0)"/>
<path d="M0 0 C2 1 2 1 2 1 Z " fill="#949493" transform="translate(532,537)"/>
<path d="" fill="#939392" transform="translate(0,0)"/>
<path d="M0 0 C2 1 2 1 2 1 Z " fill="#949493" transform="translate(497,477)"/>
<path d="M0 0 C2 1 2 1 2 1 Z " fill="#929291" transform="translate(483,468)"/>
<path d="" fill="#939291" transform="translate(0,0)"/>
<path d="M0 0 C2 1 2 1 2 1 Z " fill="#91918F" transform="translate(436,400)"/>
<path d="" fill="#939493" transform="translate(0,0)"/>
<path d="M0 0 C2 1 2 1 2 1 Z " fill="#909190" transform="translate(780,284)"/>
<path d="M0 0 C2 1 2 1 2 1 Z " fill="#8F8E8D" transform="translate(352,272)"/>
<path d="" fill="#595958" transform="translate(0,0)"/>
<path d="" fill="#939291" transform="translate(0,0)"/>
<path d="" fill="#959291" transform="translate(0,0)"/>
<path d="" fill="#969493" transform="translate(0,0)"/>
<path d="" fill="#91918E" transform="translate(0,0)"/>
<path d="" fill="#929290" transform="translate(0,0)"/>
<path d="" fill="#949291" transform="translate(0,0)"/>
<path d="" fill="#939390" transform="translate(0,0)"/>
<path d="" fill="#93918F" transform="translate(0,0)"/>
<path d="" fill="#929291" transform="translate(0,0)"/>
<path d="" fill="#949291" transform="translate(0,0)"/>
<path d="" fill="#919090" transform="translate(0,0)"/>
<path d="" fill="#8F908E" transform="translate(0,0)"/>
<path d="" fill="#8F8F8D" transform="translate(0,0)"/>
<path d="" fill="#91918F" transform="translate(0,0)"/>
<path d="" fill="#91928F" transform="translate(0,0)"/>
<path d="" fill="#929191" transform="translate(0,0)"/>
<path d="" fill="#919090" transform="translate(0,0)"/>
<path d="" fill="#929090" transform="translate(0,0)"/>
<path d="" fill="#8F918F" transform="translate(0,0)"/>
<path d="" fill="#929092" transform="translate(0,0)"/>
<path d="" fill="#8F908F" transform="translate(0,0)"/>
<path d="" fill="#8F918F" transform="translate(0,0)"/>
<path d="" fill="#8F8E8E" transform="translate(0,0)"/>
<path d="" fill="#908F8D" transform="translate(0,0)"/>
<path d="" fill="#929290" transform="translate(0,0)"/>
<path d="" fill="#8D8F8D" transform="translate(0,0)"/>
<path d="" fill="#92928F" transform="translate(0,0)"/>
<path d="" fill="#8E8F8D" transform="translate(0,0)"/>
<path d="" fill="#929190" transform="translate(0,0)"/>
<path d="" fill="#93928F" transform="translate(0,0)"/>
<path d="" fill="#8F8C8D" transform="translate(0,0)"/>
<path d="" fill="#949290" transform="translate(0,0)"/>
<path d="" fill="#959793" transform="translate(0,0)"/>
<path d="" fill="#949391" transform="translate(0,0)"/>
<path d="" fill="#91908E" transform="translate(0,0)"/>
<path d="" fill="#91908E" transform="translate(0,0)"/>
<path d="" fill="#91908E" transform="translate(0,0)"/>
<path d="" fill="#8E8F8F" transform="translate(0,0)"/>
<path d="" fill="#8D8D8D" transform="translate(0,0)"/>
<path d="" fill="#929190" transform="translate(0,0)"/>
<path d="" fill="#949190" transform="translate(0,0)"/>
<path d="" fill="#949491" transform="translate(0,0)"/>
<path d="" fill="#8F8D8C" transform="translate(0,0)"/>
<path d="" fill="#929190" transform="translate(0,0)"/>
<path d="" fill="#928F8F" transform="translate(0,0)"/>
<path d="" fill="#919291" transform="translate(0,0)"/>
<path d="" fill="#939192" transform="translate(0,0)"/>
<path d="" fill="#919190" transform="translate(0,0)"/>
<path d="" fill="#939392" transform="translate(0,0)"/>
<path d="" fill="#939391" transform="translate(0,0)"/>
<path d="" fill="#8E908D" transform="translate(0,0)"/>
<path d="" fill="#959493" transform="translate(0,0)"/>
<path d="" fill="#8F908F" transform="translate(0,0)"/>
<path d="" fill="#959795" transform="translate(0,0)"/>
<path d="" fill="#8C8D8E" transform="translate(0,0)"/>
<path d="" fill="#929192" transform="translate(0,0)"/>
<path d="" fill="#919191" transform="translate(0,0)"/>
<path d="" fill="#908F8F" transform="translate(0,0)"/>
<path d="" fill="#959796" transform="translate(0,0)"/>
<path d="" fill="#969596" transform="translate(0,0)"/>
<path d="" fill="#949394" transform="translate(0,0)"/>
<path d="" fill="#959491" transform="translate(0,0)"/>
<path d="" fill="#969593" transform="translate(0,0)"/>
<path d="" fill="#929191" transform="translate(0,0)"/>
<path d="" fill="#929391" transform="translate(0,0)"/>
<path d="" fill="#949593" transform="translate(0,0)"/>
<path d="" fill="#929392" transform="translate(0,0)"/>
<path d="" fill="#939492" transform="translate(0,0)"/>
<path d="" fill="#929391" transform="translate(0,0)"/>
<path d="" fill="#949393" transform="translate(0,0)"/>
<path d="" fill="#8D8F8C" transform="translate(0,0)"/>
<path d="" fill="#959795" transform="translate(0,0)"/>
<path d="" fill="#979696" transform="translate(0,0)"/>
<path d="" fill="#8B8B8A" transform="translate(0,0)"/>
<path d="" fill="#918F91" transform="translate(0,0)"/>
<path d="" fill="#91908F" transform="translate(0,0)"/>
<path d="" fill="#939491" transform="translate(0,0)"/>
<path d="" fill="#959394" transform="translate(0,0)"/>
<path d="" fill="#929293" transform="translate(0,0)"/>
<path d="" fill="#929191" transform="translate(0,0)"/>
<path d="" fill="#939393" transform="translate(0,0)"/>
<path d="" fill="#919090" transform="translate(0,0)"/>
<path d="" fill="#949494" transform="translate(0,0)"/>
<path d="" fill="#949393" transform="translate(0,0)"/>
<path d="" fill="#929290" transform="translate(0,0)"/>
<path d="" fill="#929291" transform="translate(0,0)"/>
<path d="" fill="#949393" transform="translate(0,0)"/>
<path d="" fill="#919190" transform="translate(0,0)"/>
<path d="" fill="#939191" transform="translate(0,0)"/>
<path d="" fill="#939491" transform="translate(0,0)"/>
<path d="" fill="#949492" transform="translate(0,0)"/>
<path d="" fill="#949392" transform="translate(0,0)"/>
<path d="" fill="#959493" transform="translate(0,0)"/>
<path d="" fill="#939390" transform="translate(0,0)"/>
<path d="" fill="#929192" transform="translate(0,0)"/>
<path d="" fill="#949592" transform="translate(0,0)"/>
<path d="" fill="#969593" transform="translate(0,0)"/>
<path d="" fill="#959694" transform="translate(0,0)"/>
<path d="" fill="#959493" transform="translate(0,0)"/>
<path d="" fill="#959493" transform="translate(0,0)"/>
<path d="" fill="#929290" transform="translate(0,0)"/>
<path d="" fill="#92928F" transform="translate(0,0)"/>
<path d="" fill="#918F8E" transform="translate(0,0)"/>
<path d="" fill="#939492" transform="translate(0,0)"/>
<path d="" fill="#8F8F8D" transform="translate(0,0)"/>
<path d="" fill="#939192" transform="translate(0,0)"/>
<path d="" fill="#919191" transform="translate(0,0)"/>
<path d="" fill="#939394" transform="translate(0,0)"/>
<path d="" fill="#919091" transform="translate(0,0)"/>
<path d="" fill="#929191" transform="translate(0,0)"/>
<path d="" fill="#908F8F" transform="translate(0,0)"/>
<path d="" fill="#929292" transform="translate(0,0)"/>
<path d="" fill="#8F8F8E" transform="translate(0,0)"/>
<path d="" fill="#909190" transform="translate(0,0)"/>
<path d="" fill="#969492" transform="translate(0,0)"/>
<path d="" fill="#959695" transform="translate(0,0)"/>
<path d="" fill="#949293" transform="translate(0,0)"/>
<path d="" fill="#90928E" transform="translate(0,0)"/>
<path d="" fill="#949292" transform="translate(0,0)"/>
<path d="" fill="#939391" transform="translate(0,0)"/>
<path d="" fill="#918E90" transform="translate(0,0)"/>
<path d="" fill="#949492" transform="translate(0,0)"/>
<path d="" fill="#949493" transform="translate(0,0)"/>
<path d="" fill="#969794" transform="translate(0,0)"/>
<path d="" fill="#979594" transform="translate(0,0)"/>
<path d="" fill="#959693" transform="translate(0,0)"/>
<path d="" fill="#989695" transform="translate(0,0)"/>
<path d="" fill="#969795" transform="translate(0,0)"/>
<path d="" fill="#959392" transform="translate(0,0)"/>
<path d="" fill="#959594" transform="translate(0,0)"/>
<path d="" fill="#949494" transform="translate(0,0)"/>
<path d="" fill="#969494" transform="translate(0,0)"/>
<path d="" fill="#929290" transform="translate(0,0)"/>
<path d="" fill="#959493" transform="translate(0,0)"/>
<path d="" fill="#969394" transform="translate(0,0)"/>
<path d="" fill="#969594" transform="translate(0,0)"/>
<path d="" fill="#919191" transform="translate(0,0)"/>
<path d="" fill="#8F9090" transform="translate(0,0)"/>
<path d="" fill="#939290" transform="translate(0,0)"/>
<path d="" fill="#959393" transform="translate(0,0)"/>
<path d="" fill="#929190" transform="translate(0,0)"/>
<path d="" fill="#949491" transform="translate(0,0)"/>
<path d="" fill="#919190" transform="translate(0,0)"/>
<path d="" fill="#929291" transform="translate(0,0)"/>
</svg>
